<svg width="194" height="194" viewBox="0 0 194 194" fill="none" xmlns="http://www.w3.org/2000/svg">
<path d="M193.999 96.9986C194.033 119.896 185.934 142.06 171.146 159.542C170.609 160.179 170.062 160.808 169.504 161.431C162.948 168.805 155.31 175.141 146.852 180.224C144.912 181.388 142.93 182.486 140.905 183.516C140.7 183.62 140.492 183.724 140.287 183.825C140.042 183.949 139.794 184.07 139.545 184.191C134.421 186.699 129.084 188.746 123.596 190.307C123.025 190.469 122.454 190.626 121.881 190.777C114.662 192.687 107.247 193.756 99.7825 193.962C99.3931 193.972 99.0105 193.979 98.6414 193.986C98.5104 193.989 98.383 193.992 98.2552 193.992C97.8357 193.996 97.42 193.999 96.9999 193.999C89.1339 194.005 81.2963 193.055 73.6595 191.17C72.8943 190.982 72.1324 190.784 71.3739 190.576C67.3783 189.485 63.4576 188.136 59.6366 186.538C57.6228 185.699 55.6447 184.794 53.7023 183.823C53.2626 183.601 52.8229 183.38 52.3899 183.152C52.2053 183.061 52.024 182.963 51.8429 182.87C41.4912 177.406 32.208 170.122 24.438 161.368C23.901 160.767 23.3739 160.156 22.8536 159.542C14.2924 149.392 7.90628 137.591 4.09079 124.873C0.275308 112.154 -0.888289 98.7867 0.672059 85.5997C2.23241 72.4128 6.48348 59.6866 13.162 48.2093C19.8405 36.7321 28.8042 26.7481 39.498 18.8759C40.0485 18.4698 40.6028 18.0675 41.1629 17.6742L41.4952 17.4427C51.3439 10.5439 62.3982 5.55183 74.0858 2.72483C74.7503 2.56047 75.415 2.40608 76.0862 2.26166C88.7457 -0.507145 101.829 -0.736105 114.577 1.58805C115.245 1.71226 115.913 1.83971 116.578 1.97739C128.161 4.35322 139.208 8.83929 149.168 15.2117C149.39 15.3526 149.611 15.4935 149.833 15.6412C150.279 15.9298 150.726 16.2251 151.165 16.5239C164.359 25.3941 175.168 37.3747 182.638 51.409C190.108 65.4433 194.01 81.1001 193.999 96.9986Z" fill="#F2F2F2"/>
<path d="M72.4977 147.18L41.4946 149.932L41.1624 149.962V17.6733L41.4946 17.4419C47.9559 12.9224 54.9454 9.20962 62.3075 6.38602L63.8927 28.2358L64.0371 30.2362L65.6045 51.9052L66.0878 58.5709L72.4405 146.408L72.4977 147.18Z" fill="#D6D6E3"/>
<path d="M149.168 15.2095C149.389 15.3505 149.611 15.4914 149.832 15.639V149.962L149.168 149.902L118.5 147.18L118.558 146.409L124.911 58.5718L125.395 51.906L126.962 30.237L127.107 28.2353L128.768 5.32119C135.933 7.80491 142.78 11.124 149.168 15.2098L149.168 15.2095Z" fill="#D6D6E3"/>
<path d="M149.167 15.2098V151.795C149.167 154.416 147.361 156.547 145.139 156.547H45.5222C43.683 156.547 42.1221 155.084 41.649 153.087C41.5456 152.664 41.4937 152.229 41.4946 151.794V17.4408L41.1623 17.6722C40.6019 18.0648 40.0479 18.4676 39.4974 18.874V151.795C39.4678 153.786 40.2115 155.711 41.5722 157.165C42.2857 157.912 43.1879 158.452 44.1833 158.728C44.6198 158.846 45.0702 158.906 45.5225 158.906H145.14C145.594 158.906 146.045 158.846 146.483 158.728C149.161 158.006 151.165 155.173 151.165 151.793V16.5223C150.725 16.2234 150.279 15.9295 149.833 15.6396C149.611 15.4916 149.389 15.3507 149.167 15.2098Z" fill="#D6D6E3"/>
<path d="M150.167 28.2372H40.4963V30.2373H150.167V28.2372Z" fill="#D6D6E3"/>
<path d="M74.0852 2.724C74.7497 2.55963 75.4144 2.40524 76.0856 2.26082V56.57H74.0852V2.724Z" fill="#D6D6E3"/>
<path d="M114.577 1.58614C115.245 1.71035 115.913 1.8378 116.577 1.97549V56.5717H114.577V1.58614Z" fill="#D6D6E3"/>
<path d="M162.667 146.408H31.3282C28.9407 146.408 26.6511 147.356 24.9629 149.044C23.2747 150.732 22.3263 153.022 22.3263 155.41C22.3263 157.797 23.2747 160.087 24.9629 161.775C26.6511 163.463 28.9407 164.411 31.3282 164.411H162.667C163.946 164.412 165.21 164.139 166.375 163.611C167.54 163.084 168.578 162.314 169.422 161.352C169.803 160.919 170.142 160.449 170.434 159.951C170.66 159.569 170.857 159.169 171.021 158.757C171.57 157.391 171.775 155.912 171.618 154.449C171.462 152.986 170.949 151.583 170.124 150.364C169.3 149.145 168.189 148.147 166.889 147.458C165.589 146.768 164.14 146.408 162.669 146.409L162.667 146.408Z" fill="#D6D6E3"/>
<path d="M150.167 51.9049H41.163V58.5717H150.167V51.9049Z" fill="#D6D6E3"/>
<path d="M94.6649 49.9048H96.665C97.1466 49.9048 97.6234 49.9997 98.0683 50.184C98.5132 50.3683 98.9175 50.6384 99.258 50.9789C99.5985 51.3194 99.8686 51.7237 100.053 52.1686C100.237 52.6135 100.332 53.0904 100.332 53.572H90.998C90.998 52.5994 91.3844 51.6668 92.0721 50.9791C92.7597 50.2914 93.6924 49.9048 94.6649 49.9048Z" fill="#D6D6E3"/>
<path d="M171.145 159.541C168.23 162.996 165.076 166.243 161.707 169.257H32.2915C28.9229 166.243 25.7692 162.996 22.8534 159.541H171.145Z" fill="#3F3D56"/>
<path d="M107.834 125.887H86.044C85.9266 125.886 85.8098 125.904 85.6983 125.941C85.4618 126.014 85.2551 126.161 85.1083 126.36C84.9615 126.56 84.8825 126.801 84.8827 127.048V161.471H108.998V127.048C108.998 126.895 108.968 126.744 108.909 126.603C108.85 126.462 108.765 126.334 108.656 126.226C108.548 126.118 108.42 126.033 108.279 125.975C108.137 125.916 107.986 125.887 107.834 125.887ZM99.5871 142.87C99.5879 143.428 99.4038 143.971 99.0636 144.414C98.7388 144.843 98.2875 145.16 97.7731 145.32C97.2588 145.479 96.7074 145.473 96.1966 145.303C95.6858 145.132 95.2413 144.806 94.9259 144.369C94.6105 143.933 94.4401 143.408 94.4385 142.87V138.876C94.4385 138.193 94.7098 137.538 95.1926 137.056C95.6754 136.573 96.3302 136.301 97.0129 136.301C97.6957 136.301 98.3505 136.573 98.8333 137.056C99.3161 137.538 99.5873 138.193 99.5873 138.876L99.5871 142.87Z" fill="#2F2E41"/>
<path d="M84.8088 160.37V163.69C84.8088 163.862 84.8767 164.027 84.9979 164.149C85.119 164.271 85.2836 164.34 85.4555 164.341H108.423C108.595 164.339 108.759 164.27 108.88 164.148C109.001 164.026 109.069 163.862 109.07 163.69V160.37H84.8088Z" fill="#3F3D56"/>
<path d="M143.915 72.1676H50.7751C49.9748 72.1686 49.2075 72.4868 48.6413 73.0525C48.0751 73.6181 47.7562 74.3851 47.7544 75.1854V138.037C47.755 138.838 48.0735 139.606 48.6399 140.172C49.2062 140.738 49.9742 141.057 50.7751 141.058H143.915C144.716 141.057 145.484 140.738 146.05 140.172C146.617 139.606 146.935 138.838 146.936 138.037V75.1852C146.934 74.3849 146.615 73.6179 146.049 73.0524C145.483 72.4868 144.715 72.1686 143.915 72.1676Z" fill="#3F3D56"/>
<path d="M143.136 74.3494H51.5505C51.1222 74.3499 50.7115 74.5205 50.4088 74.8236C50.1061 75.1268 49.936 75.5376 49.936 75.966V137.262C49.9367 137.69 50.107 138.1 50.4096 138.403C50.7123 138.705 51.1226 138.875 51.5505 138.876H143.136C143.564 138.875 143.975 138.705 144.277 138.402C144.58 138.1 144.75 137.689 144.751 137.261V75.9671C144.751 75.5388 144.581 75.1279 144.278 74.8248C143.976 74.5217 143.565 74.3511 143.137 74.3504L143.136 74.3494Z" fill="#6C63FF"/>
<path d="M126.28 164.286L125.435 160.269C125.399 160.105 125.324 159.953 125.215 159.826C125.106 159.699 124.967 159.601 124.81 159.541C124.697 159.497 124.576 159.474 124.455 159.474H71.6552C71.5334 159.474 71.4128 159.497 71.2995 159.541C71.143 159.601 71.004 159.699 70.895 159.826C70.7859 159.953 70.7104 160.105 70.6752 160.269L69.8294 164.286C69.7989 164.432 69.8012 164.583 69.8362 164.728C69.8713 164.873 69.9382 165.008 70.032 165.124C70.1259 165.239 70.2444 165.333 70.3788 165.397C70.5133 165.461 70.6604 165.494 70.8094 165.495H125.297C125.446 165.495 125.594 165.462 125.729 165.398C125.864 165.333 125.982 165.239 126.076 165.122C126.17 165.007 126.237 164.872 126.272 164.727C126.308 164.583 126.31 164.432 126.28 164.286Z" fill="#2F2E41"/>
<path d="M73.589 160.198H72.1738C72.1012 160.198 72.0424 160.257 72.0424 160.329V161.073C72.0424 161.146 72.1012 161.205 72.1738 161.205H73.589C73.6616 161.205 73.7205 161.146 73.7205 161.073V160.329C73.7205 160.257 73.6616 160.198 73.589 160.198Z" fill="#3F3D56"/>
<path d="M76.9452 160.198H75.53C75.4574 160.198 75.3986 160.257 75.3986 160.329V161.073C75.3986 161.146 75.4574 161.205 75.53 161.205H76.9452C77.0178 161.205 77.0767 161.146 77.0767 161.073V160.329C77.0767 160.257 77.0178 160.198 76.9452 160.198Z" fill="#3F3D56"/>
<path d="M80.3016 160.198H78.8865C78.8139 160.198 78.755 160.257 78.755 160.329V161.073C78.755 161.146 78.8139 161.205 78.8865 161.205H80.3016C80.3742 161.205 80.4331 161.146 80.4331 161.073V160.329C80.4331 160.257 80.3742 160.198 80.3016 160.198Z" fill="#3F3D56"/>
<path d="M83.6581 160.198H82.2429C82.1703 160.198 82.1115 160.257 82.1115 160.329V161.073C82.1115 161.146 82.1703 161.205 82.2429 161.205H83.6581C83.7307 161.205 83.7896 161.146 83.7896 161.073V160.329C83.7896 160.257 83.7307 160.198 83.6581 160.198Z" fill="#3F3D56"/>
<path d="M87.0143 160.198H85.5991C85.5265 160.198 85.4677 160.257 85.4677 160.329V161.073C85.4677 161.146 85.5265 161.205 85.5991 161.205H87.0143C87.0869 161.205 87.1458 161.146 87.1458 161.073V160.329C87.1458 160.257 87.0869 160.198 87.0143 160.198Z" fill="#3F3D56"/>
<path d="M90.3707 160.198H88.9556C88.883 160.198 88.8241 160.257 88.8241 160.329V161.073C88.8241 161.146 88.883 161.205 88.9556 161.205H90.3707C90.4433 161.205 90.5022 161.146 90.5022 161.073V160.329C90.5022 160.257 90.4433 160.198 90.3707 160.198Z" fill="#3F3D56"/>
<path d="M93.7273 160.198H92.3122C92.2395 160.198 92.1807 160.257 92.1807 160.329V161.073C92.1807 161.146 92.2395 161.205 92.3122 161.205H93.7273C93.7999 161.205 93.8588 161.146 93.8588 161.073V160.329C93.8588 160.257 93.7999 160.198 93.7273 160.198Z" fill="#3F3D56"/>
<path d="M97.0837 160.198H95.6686C95.596 160.198 95.5371 160.257 95.5371 160.329V161.073C95.5371 161.146 95.596 161.205 95.6686 161.205H97.0837C97.1563 161.205 97.2152 161.146 97.2152 161.073V160.329C97.2152 160.257 97.1563 160.198 97.0837 160.198Z" fill="#3F3D56"/>
<path d="M100.44 160.198H99.0248C98.9522 160.198 98.8933 160.257 98.8933 160.329V161.073C98.8933 161.146 98.9522 161.205 99.0248 161.205H100.44C100.513 161.205 100.571 161.146 100.571 161.073V160.329C100.571 160.257 100.513 160.198 100.44 160.198Z" fill="#3F3D56"/>
<path d="M103.796 160.198H102.381C102.309 160.198 102.25 160.257 102.25 160.329V161.073C102.25 161.146 102.309 161.205 102.381 161.205H103.796C103.869 161.205 103.928 161.146 103.928 161.073V160.329C103.928 160.257 103.869 160.198 103.796 160.198Z" fill="#3F3D56"/>
<path d="M107.153 160.198H105.738C105.665 160.198 105.606 160.257 105.606 160.329V161.073C105.606 161.146 105.665 161.205 105.738 161.205H107.153C107.225 161.205 107.284 161.146 107.284 161.073V160.329C107.284 160.257 107.225 160.198 107.153 160.198Z" fill="#3F3D56"/>
<path d="M110.509 160.198H109.094C109.021 160.198 108.962 160.257 108.962 160.329V161.073C108.962 161.146 109.021 161.205 109.094 161.205H110.509C110.582 161.205 110.641 161.146 110.641 161.073V160.329C110.641 160.257 110.582 160.198 110.509 160.198Z" fill="#3F3D56"/>
<path d="M113.865 160.198H112.45C112.378 160.198 112.319 160.257 112.319 160.329V161.073C112.319 161.146 112.378 161.205 112.45 161.205H113.865C113.938 161.205 113.997 161.146 113.997 161.073V160.329C113.997 160.257 113.938 160.198 113.865 160.198Z" fill="#3F3D56"/>
<path d="M117.222 160.198H115.807C115.734 160.198 115.675 160.257 115.675 160.329V161.073C115.675 161.146 115.734 161.205 115.807 161.205H117.222C117.295 161.205 117.353 161.146 117.353 161.073V160.329C117.353 160.257 117.295 160.198 117.222 160.198Z" fill="#3F3D56"/>
<path d="M120.578 160.198H119.163C119.091 160.198 119.032 160.257 119.032 160.329V161.073C119.032 161.146 119.091 161.205 119.163 161.205H120.578C120.651 161.205 120.71 161.146 120.71 161.073V160.329C120.71 160.257 120.651 160.198 120.578 160.198Z" fill="#3F3D56"/>
<path d="M123.935 160.198H122.52C122.447 160.198 122.388 160.257 122.388 160.329V161.073C122.388 161.146 122.447 161.205 122.52 161.205H123.935C124.007 161.205 124.066 161.146 124.066 161.073V160.329C124.066 160.257 124.007 160.198 123.935 160.198Z" fill="#3F3D56"/>
<path d="M73.5491 161.876H72.1339C72.0613 161.876 72.0024 161.935 72.0024 162.007V162.751C72.0024 162.824 72.0613 162.883 72.1339 162.883H73.5491C73.6217 162.883 73.6805 162.824 73.6805 162.751V162.007C73.6805 161.935 73.6217 161.876 73.5491 161.876Z" fill="#3F3D56"/>
<path d="M76.9055 161.876H75.4904C75.4178 161.876 75.3589 161.935 75.3589 162.007V162.751C75.3589 162.824 75.4178 162.883 75.4904 162.883H76.9055C76.9781 162.883 77.037 162.824 77.037 162.751V162.007C77.037 161.935 76.9781 161.876 76.9055 161.876Z" fill="#3F3D56"/>
<path d="M80.2621 161.876H78.8469C78.7743 161.876 78.7155 161.935 78.7155 162.007V162.751C78.7155 162.824 78.7743 162.883 78.8469 162.883H80.2621C80.3347 162.883 80.3936 162.824 80.3936 162.751V162.007C80.3936 161.935 80.3347 161.876 80.2621 161.876Z" fill="#3F3D56"/>
<path d="M83.6185 161.876H82.2034C82.1308 161.876 82.0719 161.935 82.0719 162.007V162.751C82.0719 162.824 82.1308 162.883 82.2034 162.883H83.6185C83.6911 162.883 83.75 162.824 83.75 162.751V162.007C83.75 161.935 83.6911 161.876 83.6185 161.876Z" fill="#3F3D56"/>
<path d="M86.9747 161.876H85.5596C85.487 161.876 85.4281 161.935 85.4281 162.007V162.751C85.4281 162.824 85.487 162.883 85.5596 162.883H86.9747C87.0473 162.883 87.1062 162.824 87.1062 162.751V162.007C87.1062 161.935 87.0473 161.876 86.9747 161.876Z" fill="#3F3D56"/>
<path d="M90.3312 161.876H88.916C88.8434 161.876 88.7845 161.935 88.7845 162.007V162.751C88.7845 162.824 88.8434 162.883 88.916 162.883H90.3312C90.4038 162.883 90.4626 162.824 90.4626 162.751V162.007C90.4626 161.935 90.4038 161.876 90.3312 161.876Z" fill="#3F3D56"/>
<path d="M93.6876 161.876H92.2725C92.1999 161.876 92.141 161.935 92.141 162.007V162.751C92.141 162.824 92.1999 162.883 92.2725 162.883H93.6876C93.7602 162.883 93.8191 162.824 93.8191 162.751V162.007C93.8191 161.935 93.7602 161.876 93.6876 161.876Z" fill="#3F3D56"/>
<path d="M97.0438 161.876H95.6287C95.5561 161.876 95.4972 161.935 95.4972 162.007V162.751C95.4972 162.824 95.5561 162.883 95.6287 162.883H97.0438C97.1164 162.883 97.1753 162.824 97.1753 162.751V162.007C97.1753 161.935 97.1164 161.876 97.0438 161.876Z" fill="#3F3D56"/>
<path d="M100.4 161.876H98.9851C98.9125 161.876 98.8536 161.935 98.8536 162.007V162.751C98.8536 162.824 98.9125 162.883 98.9851 162.883H100.4C100.473 162.883 100.532 162.824 100.532 162.751V162.007C100.532 161.935 100.473 161.876 100.4 161.876Z" fill="#3F3D56"/>
<path d="M103.757 161.876H102.342C102.269 161.876 102.21 161.935 102.21 162.007V162.751C102.21 162.824 102.269 162.883 102.342 162.883H103.757C103.829 162.883 103.888 162.824 103.888 162.751V162.007C103.888 161.935 103.829 161.876 103.757 161.876Z" fill="#3F3D56"/>
<path d="M107.113 161.876H105.698C105.625 161.876 105.566 161.935 105.566 162.007V162.751C105.566 162.824 105.625 162.883 105.698 162.883H107.113C107.186 162.883 107.245 162.824 107.245 162.751V162.007C107.245 161.935 107.186 161.876 107.113 161.876Z" fill="#3F3D56"/>
<path d="M110.469 161.876H109.054C108.982 161.876 108.923 161.935 108.923 162.007V162.751C108.923 162.824 108.982 162.883 109.054 162.883H110.469C110.542 162.883 110.601 162.824 110.601 162.751V162.007C110.601 161.935 110.542 161.876 110.469 161.876Z" fill="#3F3D56"/>
<path d="M113.826 161.876H112.411C112.338 161.876 112.279 161.935 112.279 162.007V162.751C112.279 162.824 112.338 162.883 112.411 162.883H113.826C113.899 162.883 113.957 162.824 113.957 162.751V162.007C113.957 161.935 113.899 161.876 113.826 161.876Z" fill="#3F3D56"/>
<path d="M117.182 161.876H115.767C115.695 161.876 115.636 161.935 115.636 162.007V162.751C115.636 162.824 115.695 162.883 115.767 162.883H117.182C117.255 162.883 117.314 162.824 117.314 162.751V162.007C117.314 161.935 117.255 161.876 117.182 161.876Z" fill="#3F3D56"/>
<path d="M120.539 161.876H119.123C119.051 161.876 118.992 161.935 118.992 162.007V162.751C118.992 162.824 119.051 162.883 119.123 162.883H120.539C120.611 162.883 120.67 162.824 120.67 162.751V162.007C120.67 161.935 120.611 161.876 120.539 161.876Z" fill="#3F3D56"/>
<path d="M123.895 161.876H122.48C122.407 161.876 122.348 161.935 122.348 162.007V162.751C122.348 162.824 122.407 162.883 122.48 162.883H123.895C123.968 162.883 124.026 162.824 124.026 162.751V162.007C124.026 161.935 123.968 161.876 123.895 161.876Z" fill="#3F3D56"/>
<path d="M101.407 163.89H88.2448C88.1722 163.89 88.1133 163.949 88.1133 164.021V164.765C88.1133 164.838 88.1722 164.897 88.2448 164.897H101.407C101.48 164.897 101.539 164.838 101.539 164.765V164.021C101.539 163.949 101.48 163.89 101.407 163.89Z" fill="#3F3D56"/>
<path d="M138.534 82.7929H52.8374C52.747 82.7929 52.6603 82.757 52.5964 82.6931C52.5325 82.6292 52.4966 82.5425 52.4966 82.4521C52.4966 82.3617 52.5325 82.275 52.5964 82.2111C52.6603 82.1471 52.747 82.1112 52.8374 82.1112H138.534C138.624 82.1112 138.711 82.1471 138.775 82.2111C138.839 82.275 138.875 82.3617 138.875 82.4521C138.875 82.5425 138.839 82.6292 138.775 82.6931C138.711 82.757 138.624 82.7929 138.534 82.7929Z" fill="#3F3D56"/>
<path d="M58.671 80.3712C59.7739 80.3712 60.6681 79.4571 60.6681 78.3296C60.6681 77.202 59.7739 76.288 58.671 76.288C57.568 76.288 56.6738 77.202 56.6738 78.3296C56.6738 79.4571 57.568 80.3712 58.671 80.3712Z" fill="#3F3D56"/>
<path d="M65.5702 80.3712C66.6732 80.3712 67.5674 79.4571 67.5674 78.3296C67.5674 77.202 66.6732 76.288 65.5702 76.288C64.4673 76.288 63.5731 77.202 63.5731 78.3296C63.5731 79.4571 64.4673 80.3712 65.5702 80.3712Z" fill="#3F3D56"/>
<path d="M72.4697 80.3712C73.5726 80.3712 74.4668 79.4571 74.4668 78.3296C74.4668 77.202 73.5726 76.288 72.4697 76.288C71.3667 76.288 70.4725 77.202 70.4725 78.3296C70.4725 79.4571 71.3667 80.3712 72.4697 80.3712Z" fill="#3F3D56"/>
<path d="M134.379 76.793H129.479C129.382 76.7956 129.291 76.8358 129.223 76.9051C129.156 76.9743 129.118 77.0672 129.118 77.1638C129.118 77.2605 129.156 77.3534 129.223 77.4226C129.291 77.4919 129.382 77.5321 129.479 77.5347H134.379C134.429 77.5361 134.478 77.5275 134.524 77.5094C134.571 77.4914 134.613 77.4643 134.648 77.4297C134.684 77.3951 134.712 77.3538 134.731 77.3081C134.75 77.2625 134.76 77.2134 134.76 77.1638C134.76 77.1143 134.75 77.0652 134.731 77.0196C134.712 76.9739 134.684 76.9326 134.648 76.898C134.613 76.8634 134.571 76.8363 134.524 76.8183C134.478 76.8002 134.429 76.7916 134.379 76.793Z" fill="#3F3D56"/>
<path d="M134.379 78.1857H129.479C129.382 78.1883 129.291 78.2285 129.223 78.2978C129.156 78.3671 129.118 78.4599 129.118 78.5566C129.118 78.6533 129.156 78.7461 129.223 78.8154C129.291 78.8847 129.382 78.9249 129.479 78.9275H134.379C134.478 78.9275 134.572 78.8884 134.642 78.8188C134.711 78.7493 134.75 78.655 134.75 78.5566C134.75 78.4582 134.711 78.3639 134.642 78.2943C134.572 78.2248 134.478 78.1857 134.379 78.1857Z" fill="#3F3D56"/>
<path d="M134.379 79.5787H129.479C129.382 79.5813 129.291 79.6215 129.223 79.6908C129.156 79.7601 129.118 79.8529 129.118 79.9496C129.118 80.0463 129.156 80.1391 129.223 80.2084C129.291 80.2777 129.382 80.3179 129.479 80.3205H134.379C134.429 80.3218 134.478 80.3132 134.524 80.2952C134.571 80.2771 134.613 80.25 134.648 80.2155C134.684 80.1809 134.712 80.1396 134.731 80.0939C134.75 80.0482 134.76 79.9992 134.76 79.9496C134.76 79.9 134.75 79.851 134.731 79.8053C134.712 79.7596 134.684 79.7183 134.648 79.6837C134.613 79.6492 134.571 79.6221 134.524 79.604C134.478 79.586 134.429 79.5774 134.379 79.5787Z" fill="#3F3D56"/>
<path d="M60.4175 90.713H58.2754C57.8468 90.713 57.4994 91.0604 57.4994 91.489V91.8702C57.4994 92.2988 57.8468 92.6462 58.2754 92.6462H60.4175C60.846 92.6462 61.1935 92.2988 61.1935 91.8702V91.489C61.1935 91.0604 60.846 90.713 60.4175 90.713Z" fill="#E6E6E6"/>
<path d="M80.5557 90.713H78.4136C77.985 90.713 77.6376 91.0604 77.6376 91.489V91.8702C77.6376 92.2988 77.985 92.6462 78.4136 92.6462H80.5557C80.9842 92.6462 81.3317 92.2988 81.3317 91.8702V91.489C81.3317 91.0604 80.9842 90.713 80.5557 90.713Z" fill="#E6E6E6"/>
<path d="M86.2615 90.713H84.1194C83.6908 90.713 83.3434 91.0604 83.3434 91.489V91.8702C83.3434 92.2988 83.6908 92.6462 84.1194 92.6462H86.2615C86.69 92.6462 87.0375 92.2988 87.0375 91.8702V91.489C87.0375 91.0604 86.69 90.713 86.2615 90.713Z" fill="#E6E6E6"/>
<path d="M75.0782 90.5516H63.7532C63.3246 90.5516 62.9772 90.899 62.9772 91.3276V91.7088C62.9772 92.1374 63.3246 92.4848 63.7532 92.4848H75.0782C75.5068 92.4848 75.8542 92.1374 75.8542 91.7088V91.3276C75.8542 90.899 75.5068 90.5516 75.0782 90.5516Z" fill="#E6E6E6"/>
<path d="M101.929 90.5516H90.6041C90.1756 90.5516 89.8281 90.899 89.8281 91.3276V91.7088C89.8281 92.1374 90.1756 92.4848 90.6041 92.4848H101.929C102.358 92.4848 102.705 92.1374 102.705 91.7088V91.3276C102.705 90.899 102.358 90.5516 101.929 90.5516Z" fill="#E6E6E6"/>
<path d="M65.7875 95.0764H63.6454C63.2168 95.0764 62.8694 95.4238 62.8694 95.8524V96.2336C62.8694 96.6622 63.2168 97.0096 63.6454 97.0096H65.7875C66.216 97.0096 66.5635 96.6622 66.5635 96.2336V95.8524C66.5635 95.4238 66.216 95.0764 65.7875 95.0764Z" fill="#E6E6E6"/>
<path d="M85.926 95.0764H83.7839C83.3554 95.0764 83.0079 95.4238 83.0079 95.8524V96.2336C83.0079 96.6622 83.3554 97.0096 83.7839 97.0096H85.926C86.3546 97.0096 86.702 96.6622 86.702 96.2336V95.8524C86.702 95.4238 86.3546 95.0764 85.926 95.0764Z" fill="#E6E6E6"/>
<path d="M91.6317 95.0764H89.4896C89.0611 95.0764 88.7136 95.4238 88.7136 95.8524V96.2336C88.7136 96.6622 89.0611 97.0096 89.4896 97.0096H91.6317C92.0603 97.0096 92.4077 96.6622 92.4077 96.2336V95.8524C92.4077 95.4238 92.0603 95.0764 91.6317 95.0764Z" fill="#E6E6E6"/>
<path d="M80.4482 94.915H69.1232C68.6946 94.915 68.3472 95.2624 68.3472 95.691V96.0722C68.3472 96.5008 68.6946 96.8482 69.1232 96.8482H80.4482C80.8768 96.8482 81.2242 96.5008 81.2242 96.0722V95.691C81.2242 95.2624 80.8768 94.915 80.4482 94.915Z" fill="#E6E6E6"/>
<path d="M107.299 94.915H95.9744C95.5458 94.915 95.1984 95.2624 95.1984 95.691V96.0722C95.1984 96.5008 95.5458 96.8482 95.9744 96.8482H107.299C107.728 96.8482 108.075 96.5008 108.075 96.0722V95.691C108.075 95.2624 107.728 94.915 107.299 94.915Z" fill="#E6E6E6"/>
<path d="M71.1577 99.4395H69.0156C68.5871 99.4395 68.2396 99.7869 68.2396 100.215V100.597C68.2396 101.025 68.5871 101.373 69.0156 101.373H71.1577C71.5863 101.373 71.9337 101.025 71.9337 100.597V100.215C71.9337 99.7869 71.5863 99.4395 71.1577 99.4395Z" fill="#E6E6E6"/>
<path d="M91.296 99.4395H89.1539C88.7254 99.4395 88.3779 99.7869 88.3779 100.215V100.597C88.3779 101.025 88.7254 101.373 89.1539 101.373H91.296C91.7246 101.373 92.072 101.025 92.072 100.597V100.215C92.072 99.7869 91.7246 99.4395 91.296 99.4395Z" fill="#E6E6E6"/>
<path d="M97.0021 99.4395H94.86C94.4314 99.4395 94.084 99.7869 94.084 100.215V100.597C94.084 101.025 94.4314 101.373 94.86 101.373H97.0021C97.4306 101.373 97.7781 101.025 97.7781 100.597V100.215C97.7781 99.7869 97.4306 99.4395 97.0021 99.4395Z" fill="#E6E6E6"/>
<path d="M85.8184 99.2784H74.4934C74.0648 99.2784 73.7174 99.6258 73.7174 100.054V100.436C73.7174 100.864 74.0648 101.212 74.4934 101.212H85.8184C86.247 101.212 86.5944 100.864 86.5944 100.436V100.054C86.5944 99.6258 86.247 99.2784 85.8184 99.2784Z" fill="#E6E6E6"/>
<path d="M112.67 99.2784H101.345C100.916 99.2784 100.569 99.6258 100.569 100.054V100.436C100.569 100.864 100.916 101.212 101.345 101.212H112.67C113.098 101.212 113.446 100.864 113.446 100.436V100.054C113.446 99.6258 113.098 99.2784 112.67 99.2784Z" fill="#E6E6E6"/>
<path d="M76.5281 103.803H74.386C73.9574 103.803 73.61 104.15 73.61 104.579V104.96C73.61 105.389 73.9574 105.736 74.386 105.736H76.5281C76.9566 105.736 77.3041 105.389 77.3041 104.96V104.579C77.3041 104.15 76.9566 103.803 76.5281 103.803Z" fill="#E6E6E6"/>
<path d="M96.6664 103.803H94.5243C94.0957 103.803 93.7483 104.15 93.7483 104.579V104.96C93.7483 105.389 94.0957 105.736 94.5243 105.736H96.6664C97.0949 105.736 97.4424 105.389 97.4424 104.96V104.579C97.4424 104.15 97.0949 103.803 96.6664 103.803Z" fill="#E6E6E6"/>
<path d="M102.372 103.803H100.23C99.8017 103.803 99.4542 104.15 99.4542 104.579V104.96C99.4542 105.389 99.8017 105.736 100.23 105.736H102.372C102.801 105.736 103.148 105.389 103.148 104.96V104.579C103.148 104.15 102.801 103.803 102.372 103.803Z" fill="#E6E6E6"/>
<path d="M91.1888 103.642H79.8638C79.4352 103.642 79.0878 103.989 79.0878 104.418V104.799C79.0878 105.228 79.4352 105.575 79.8638 105.575H91.1888C91.6174 105.575 91.9648 105.228 91.9648 104.799V104.418C91.9648 103.989 91.6174 103.642 91.1888 103.642Z" fill="#E6E6E6"/>
<path d="M80.5557 121.153H78.4136C77.985 121.153 77.6376 121.501 77.6376 121.929V122.31C77.6376 122.739 77.985 123.086 78.4136 123.086H80.5557C80.9842 123.086 81.3317 122.739 81.3317 122.31V121.929C81.3317 121.501 80.9842 121.153 80.5557 121.153Z" fill="#E6E6E6"/>
<path d="M86.2615 121.153H84.1194C83.6908 121.153 83.3434 121.501 83.3434 121.929V122.31C83.3434 122.739 83.6908 123.086 84.1194 123.086H86.2615C86.69 123.086 87.0375 122.739 87.0375 122.31V121.929C87.0375 121.501 86.69 121.153 86.2615 121.153Z" fill="#E6E6E6"/>
<path d="M101.929 121.314H90.6041C90.1756 121.314 89.8281 121.662 89.8281 122.09V122.472C89.8281 122.9 90.1756 123.248 90.6041 123.248H101.929C102.358 123.248 102.705 122.9 102.705 122.472V122.09C102.705 121.662 102.358 121.314 101.929 121.314Z" fill="#E6E6E6"/>
<path d="M60.4175 121.153H58.2754C57.8468 121.153 57.4994 121.501 57.4994 121.929V122.31C57.4994 122.739 57.8468 123.086 58.2754 123.086H60.4175C60.846 123.086 61.1935 122.739 61.1935 122.31V121.929C61.1935 121.501 60.846 121.153 60.4175 121.153Z" fill="#E6E6E6"/>
<path d="M75.0782 121.314H63.7532C63.3246 121.314 62.9772 121.662 62.9772 122.09V122.472C62.9772 122.9 63.3246 123.248 63.7532 123.248H75.0782C75.5068 123.248 75.8542 122.9 75.8542 122.472V122.09C75.8542 121.662 75.5068 121.314 75.0782 121.314Z" fill="#E6E6E6"/>
<path d="M65.7875 116.79H63.6454C63.2168 116.79 62.8694 117.137 62.8694 117.566V117.947C62.8694 118.376 63.2168 118.723 63.6454 118.723H65.7875C66.216 118.723 66.5635 118.376 66.5635 117.947V117.566C66.5635 117.137 66.216 116.79 65.7875 116.79Z" fill="#E6E6E6"/>
<path d="M85.926 116.79H83.7839C83.3554 116.79 83.0079 117.137 83.0079 117.566V117.947C83.0079 118.376 83.3554 118.723 83.7839 118.723H85.926C86.3546 118.723 86.702 118.376 86.702 117.947V117.566C86.702 117.137 86.3546 116.79 85.926 116.79Z" fill="#E6E6E6"/>
<path d="M91.6317 116.79H89.4896C89.0611 116.79 88.7136 117.137 88.7136 117.566V117.947C88.7136 118.376 89.0611 118.723 89.4896 118.723H91.6317C92.0603 118.723 92.4077 118.376 92.4077 117.947V117.566C92.4077 117.137 92.0603 116.79 91.6317 116.79Z" fill="#E6E6E6"/>
<path d="M80.4482 116.951H69.1232C68.6946 116.951 68.3472 117.298 68.3472 117.727V118.108C68.3472 118.537 68.6946 118.884 69.1232 118.884H80.4482C80.8768 118.884 81.2242 118.537 81.2242 118.108V117.727C81.2242 117.298 80.8768 116.951 80.4482 116.951Z" fill="#E6E6E6"/>
<path d="M71.1577 112.426H69.0156C68.5871 112.426 68.2396 112.774 68.2396 113.202V113.584C68.2396 114.012 68.5871 114.36 69.0156 114.36H71.1577C71.5863 114.36 71.9337 114.012 71.9337 113.584V113.202C71.9337 112.774 71.5863 112.426 71.1577 112.426Z" fill="#E6E6E6"/>
<path d="M91.296 112.426H89.1539C88.7254 112.426 88.3779 112.774 88.3779 113.202V113.584C88.3779 114.012 88.7254 114.36 89.1539 114.36H91.296C91.7246 114.36 92.072 114.012 92.072 113.584V113.202C92.072 112.774 91.7246 112.426 91.296 112.426Z" fill="#E6E6E6"/>
<path d="M97.0021 112.426H94.86C94.4314 112.426 94.084 112.774 94.084 113.202V113.584C94.084 114.012 94.4314 114.36 94.86 114.36H97.0021C97.4306 114.36 97.7781 114.012 97.7781 113.584V113.202C97.7781 112.774 97.4306 112.426 97.0021 112.426Z" fill="#E6E6E6"/>
<path d="M85.8184 112.588H74.4934C74.0648 112.588 73.7174 112.935 73.7174 113.364V113.745C73.7174 114.173 74.0648 114.521 74.4934 114.521H85.8184C86.247 114.521 86.5944 114.173 86.5944 113.745V113.364C86.5944 112.935 86.247 112.588 85.8184 112.588Z" fill="#E6E6E6"/>
<path d="M76.5281 108.063H74.386C73.9574 108.063 73.61 108.411 73.61 108.839V109.221C73.61 109.649 73.9574 109.997 74.386 109.997H76.5281C76.9566 109.997 77.3041 109.649 77.3041 109.221V108.839C77.3041 108.411 76.9566 108.063 76.5281 108.063Z" fill="#E6E6E6"/>
<path d="M96.6664 108.063H94.5243C94.0957 108.063 93.7483 108.411 93.7483 108.839V109.221C93.7483 109.649 94.0957 109.997 94.5243 109.997H96.6664C97.0949 109.997 97.4424 109.649 97.4424 109.221V108.839C97.4424 108.411 97.0949 108.063 96.6664 108.063Z" fill="#E6E6E6"/>
<path d="M102.372 108.063H100.23C99.8017 108.063 99.4542 108.411 99.4542 108.839V109.221C99.4542 109.649 99.8017 109.997 100.23 109.997H102.372C102.801 109.997 103.148 109.649 103.148 109.221V108.839C103.148 108.411 102.801 108.063 102.372 108.063Z" fill="#E6E6E6"/>
<path d="M91.1888 108.224H79.8638C79.4352 108.224 79.0878 108.572 79.0878 109V109.382C79.0878 109.81 79.4352 110.158 79.8638 110.158H91.1888C91.6174 110.158 91.9648 109.81 91.9648 109.382V109C91.9648 108.572 91.6174 108.224 91.1888 108.224Z" fill="#E6E6E6"/>
<path d="M89.6235 112.343C89.6235 112.343 95.1776 120.14 93.1939 122.251C91.2103 124.362 108.075 124.414 108.075 124.414C108.075 124.414 105.543 113.072 106.288 110.462L89.6235 112.343Z" fill="#FFB9B9"/>
<path d="M139.562 184.187C139.357 184.291 139.149 184.395 138.944 184.496C133.641 187.148 129.398 188.655 123.595 190.306C123.105 184.836 122.632 175.219 122.172 169.258C122.051 167.711 121.93 166.412 121.813 165.496C121.783 165.008 121.683 164.528 121.517 164.069L121.537 165.496L121.587 169.258L121.879 190.776C114.661 192.686 107.245 193.755 99.7808 193.961C99.3915 193.971 99.0089 193.978 98.6397 193.985C98.5088 193.988 98.3813 193.991 98.2536 193.991C97.8341 193.995 97.4183 193.998 96.9983 193.998C89.1323 194.004 81.2947 193.054 73.6579 191.169C73.8223 185.755 73.9869 176.246 74.1445 169.258C74.1782 167.892 74.2084 166.62 74.2418 165.496C74.3057 163.093 74.3727 161.361 74.4366 160.78C74.3801 160.883 74.3361 160.993 74.3057 161.106C73.9948 162.553 73.7829 164.02 73.6714 165.496C73.5539 166.62 73.4364 167.892 73.319 169.258C72.6947 176.518 72.0437 186.389 71.3722 190.575C67.3766 189.484 63.456 188.136 59.6349 186.537C57.6217 185.698 55.6439 184.793 53.7018 183.822C54.0709 181.405 54.4562 178.697 54.8531 175.887C55.1619 173.709 55.4807 171.47 55.8064 169.259C56.3097 165.842 56.8268 162.492 57.3503 159.542C58.1155 155.233 58.901 151.769 59.6797 150.178C60.4182 148.667 61.1565 147.177 61.8713 145.751C62.1198 145.251 62.3682 144.757 62.6099 144.277C62.667 144.163 62.7241 144.052 62.781 143.942C63.2945 142.932 63.7914 141.965 64.2645 141.059C64.6706 140.283 65.0567 139.552 65.4232 138.876C66.3094 137.238 67.0611 135.933 67.6183 135.107C69.9477 131.574 73.4154 128.943 77.4458 127.652L77.5465 127.626L77.6171 127.656L84.481 125.548L85.4846 125.239L86.1582 125.031L88.5345 123.222L89.8278 122.239L91.0403 121.315L93.4098 119.513L108.081 120.416L110.937 127.293L117.334 129.633L117.445 129.582L117.542 129.542L117.643 129.569C121.672 130.861 125.14 133.491 127.47 137.023C127.786 137.497 128.168 138.121 128.602 138.876C128.971 139.517 129.374 140.249 129.81 141.059C130.43 142.21 131.109 143.509 131.827 144.915C131.985 145.224 132.146 145.54 132.307 145.858C132.606 146.449 132.909 147.052 133.217 147.667C133.932 149.094 134.67 150.584 135.408 152.098C136.049 153.41 136.697 156.109 137.335 159.542C137.862 162.395 138.386 165.758 138.892 169.259C139.557 173.797 138.849 179.231 139.45 183.406C139.485 183.671 139.525 183.929 139.562 184.187Z" fill="#3F3D56"/>
<path d="M97.2058 114.024C106.629 114.024 114.269 106.384 114.269 96.9608C114.269 87.5373 106.629 79.898 97.2058 79.898C87.7822 79.898 80.1429 87.5373 80.1429 96.9608C80.1429 106.384 87.7822 114.024 97.2058 114.024Z" fill="#FFB9B9"/>
<path d="M125.344 74.3494C125.007 73.5617 124.558 72.8267 124.012 72.1669C121.42 69.0017 116.708 67.6089 111.872 71.3545C110.941 71.1467 109.97 71.2027 109.069 71.5162C108.644 71.6702 108.245 71.89 107.888 72.1674C107.155 72.7389 106.584 73.491 106.23 74.3499C106.04 74.8034 105.916 75.2813 105.861 75.7696C104.665 75.1484 103.4 74.6718 102.091 74.3499C98.8812 73.5514 95.5244 73.5514 92.3143 74.3499C91.2856 74.6101 90.295 75.0028 89.3674 75.5179C87.7965 76.4241 86.8936 77.5687 86.7325 78.8407C84.467 78.9682 82.1107 80.161 80.3552 82.1131C80.1572 82.3314 79.9659 82.5596 79.7881 82.7946C78.3119 84.726 77.5185 87.0927 77.5323 89.5237V89.9499H77.9585C79.1265 89.9487 80.2835 90.1744 81.3654 90.6144C82.0664 90.8959 82.7303 91.2622 83.3423 91.7051C83.7429 91.9891 84.1212 92.3033 84.474 92.6449C85.2916 93.4364 85.9842 94.3474 86.5282 95.3469C87.9227 97.8725 88.4062 100.801 87.8975 103.641C87.7809 104.298 87.6103 104.945 87.3875 105.574C87.0703 106.471 86.6525 107.33 86.1421 108.134C86.1219 108.164 86.1052 108.194 86.085 108.224C85.86 108.583 85.6452 108.949 85.444 109.318C85.2928 109.594 85.1519 109.876 85.021 110.157C84.6384 110.942 84.3153 111.754 84.0545 112.588C83.5873 114.061 83.312 115.588 83.2353 117.132C83.2119 117.542 83.2052 117.951 83.2186 118.36C83.2386 119.416 83.3543 120.468 83.5643 121.502C83.5945 121.643 83.6247 121.781 83.6549 121.922L83.8998 122.992L84.4804 125.547L84.8833 127.305L85.2559 128.937L85.8064 128.148C85.995 127.879 86.4676 127.054 87.1019 125.885C87.5214 125.123 88.008 124.214 88.5351 123.22C89.2701 121.827 90.0757 120.273 90.8644 118.722C91.1831 118.094 91.4987 117.47 91.8042 116.859C92.3816 115.701 92.9254 114.584 93.3918 113.59C93.8213 112.674 94.1872 111.862 94.459 111.21C94.5428 111.637 94.6134 112.07 94.6671 112.506C94.7274 112.949 94.7711 113.399 94.7945 113.849C94.8012 113.916 94.8045 113.986 94.808 114.053L94.8215 114.329L94.8247 114.41L95.1804 114.456C97.2323 114.676 99.301 114.692 101.356 114.503H101.359C104.082 114.298 106.753 113.651 109.267 112.587C110.695 111.967 112.028 111.149 113.228 110.157C113.788 109.693 114.31 109.186 114.791 108.64C114.911 108.502 115.029 108.365 115.143 108.223C115.807 107.407 116.376 106.517 116.838 105.572C117.147 104.948 117.41 104.302 117.623 103.639C118.912 99.7351 118.838 94.8649 117.402 89.0785C117.79 89.0037 118.162 88.8605 118.499 88.6555C119.553 88.0212 120.285 86.7624 120.513 85.2252L120.876 85.3225C122.161 84.724 123.305 83.8617 124.235 82.7919C124.42 82.574 124.592 82.3465 124.752 82.1104C126.395 79.6957 126.408 76.7962 125.344 74.3494Z" fill="#090814"/>
<path opacity="0.2" d="M69.2488 159.527L72.0995 148.519L74.6177 158.016L69.2488 159.527Z" fill="black"/>
<path d="M145.14 152.355C144.12 166.412 145.177 172.601 139.545 184.191C134.421 186.699 129.083 188.746 123.595 190.307C123.025 190.469 122.453 190.625 121.88 190.777C114.662 192.687 107.246 193.756 99.7819 193.962C99.3925 193.972 99.0099 193.979 98.6408 193.986C98.5098 193.989 98.3824 193.992 98.2547 193.992C97.8351 193.996 97.4194 193.999 96.9993 193.999C89.1333 194.005 81.2958 193.055 73.659 191.17C72.8938 190.982 72.1319 190.784 71.3733 190.576C67.3777 189.485 63.4571 188.136 59.636 186.538C57.6222 185.699 55.6441 184.794 53.7018 183.823C53.262 183.601 52.8223 183.38 52.3893 183.152C50.164 179.238 48.8986 174.479 48.8717 168.759C50.4127 158.903 141.737 143.857 145.14 152.355Z" fill="#090814"/>
<path opacity="0.2" d="M145.138 154.762C145.19 153.892 145.248 152.993 145.316 152.057C141.913 143.559 50.5884 158.605 49.0477 168.46C49.052 169.363 49.0906 170.24 49.1555 171.096C52.8865 161.37 139.646 147.069 145.138 154.762Z" fill="black"/>
<path d="M54.7408 114.838C54.763 114.534 54.7198 114.228 54.6141 113.942C54.5083 113.656 54.3425 113.395 54.1277 113.179C53.913 112.962 53.6543 112.794 53.3691 112.685C53.0838 112.577 52.7787 112.531 52.4742 112.55C52.3608 112.555 52.2479 112.569 52.1369 112.593L38.7913 115.607C38.493 115.68 38.2133 115.814 37.9699 116.001C37.7266 116.188 37.5252 116.424 37.3786 116.693C37.1828 116.701 36.9885 116.729 36.7987 116.778C36.3786 116.867 35.9803 117.039 35.6272 117.283C35.274 117.528 34.9729 117.84 34.7414 118.202C34.5099 118.564 34.3526 118.968 34.2786 119.391C34.2046 119.814 34.2154 120.248 34.3104 120.667C34.4054 121.086 34.5826 121.481 34.8319 121.831C35.0811 122.181 35.3974 122.478 35.7623 122.705C36.1272 122.931 36.5335 123.083 36.9576 123.151C37.3817 123.219 37.8151 123.203 38.2327 123.102C38.7101 122.991 39.1567 122.775 39.5398 122.47L44.0622 135.204C44.288 135.603 44.637 135.919 45.0569 136.103C45.4768 136.287 45.9451 136.331 46.3918 136.227L55.0679 134.266C55.5111 134.162 55.91 133.921 56.2073 133.576C56.5047 133.231 56.6851 132.801 56.7228 132.348L54.7408 114.838ZM38.0323 122.196C37.7353 122.264 37.4279 122.272 37.1276 122.221C36.8273 122.171 36.54 122.061 36.2821 121.899C35.7612 121.572 35.3915 121.051 35.2545 120.451C35.1867 120.154 35.178 119.847 35.229 119.547C35.28 119.246 35.3896 118.959 35.5516 118.701C35.7136 118.443 35.9248 118.22 36.1732 118.043C36.4216 117.867 36.7023 117.741 36.9992 117.674C37.0412 117.663 37.0835 117.674 37.1258 117.663C37.1226 118.047 37.2208 118.425 37.4104 118.759L39.0653 121.647C38.7773 121.921 38.4202 122.11 38.0323 122.196Z" fill="#090814"/>
<path d="M52.4745 112.55C52.6011 114.237 49.7127 116.177 45.8437 116.946C42.2911 117.674 39.1076 117.168 38.2114 115.839C38.3915 115.733 38.5871 115.654 38.7913 115.607L52.1369 112.593C52.2479 112.569 52.361 112.555 52.4745 112.55Z" fill="#3F3D56"/>
<path d="M43.2443 155.368L50.7403 151.62L44.4935 134.753L42.8472 126.247C42.6333 125.142 42.1331 124.112 41.3966 123.261C40.6602 122.41 39.7133 121.767 38.6505 121.396C37.5877 121.026 36.4462 120.941 35.3402 121.149C34.2342 121.358 33.2023 121.853 32.3477 122.586C31.0815 123.671 30.2867 125.207 30.1308 126.867C29.975 128.528 30.4704 130.184 31.5124 131.486L37.6234 139.125L43.2443 155.368Z" fill="#FFB9B9"/>
<path d="M50.7406 148.496L40.7461 153.494L48.331 177.259C48.8756 178.965 49.852 180.502 51.1655 181.72C52.479 182.939 54.085 183.797 55.8277 184.212C57.9765 184.724 60.2324 184.538 62.2685 183.681C64.3046 182.825 66.015 181.342 67.1517 179.448L87.2641 144.973C88.6894 142.597 89.1294 139.759 88.49 137.063C87.8506 134.368 86.1826 132.029 83.8421 130.547C82.5834 129.749 81.1709 129.226 79.6965 129.011C78.2222 128.796 76.7191 128.893 75.2849 129.297C73.8508 129.702 72.5179 130.403 71.3728 131.357C70.2278 132.31 69.2963 133.494 68.639 134.831L56.3626 160.989L50.7406 148.496Z" fill="#3F3D56"/>
<path d="M47.6493 127.018C47.6309 127.018 47.6127 127.015 47.5954 127.009L45.4129 126.258C45.3865 126.249 45.3628 126.233 45.3439 126.213C45.325 126.192 45.3115 126.167 45.3047 126.14C45.2979 126.113 45.2978 126.085 45.3047 126.058C45.3115 126.031 45.325 126.006 45.3439 125.986L46.9668 124.219C46.9814 124.201 46.9993 124.187 47.0195 124.177C47.0398 124.167 47.0618 124.161 47.0844 124.159C47.107 124.158 47.1296 124.161 47.151 124.169C47.1723 124.176 47.1919 124.188 47.2085 124.203C47.2252 124.219 47.2386 124.237 47.248 124.258C47.2573 124.278 47.2623 124.301 47.2628 124.323C47.2633 124.346 47.2593 124.368 47.2508 124.389C47.2424 124.41 47.2298 124.43 47.2139 124.446L45.7642 126.024L47.7042 126.692C47.7417 126.705 47.7734 126.73 47.7937 126.764C47.814 126.798 47.8216 126.839 47.8152 126.878C47.8087 126.917 47.7886 126.952 47.7585 126.978C47.7283 127.004 47.69 127.018 47.6504 127.018H47.6493Z" fill="#6C63FF"/>
<path d="M50.6401 126.406C50.6068 126.406 50.5741 126.396 50.5465 126.377C50.5188 126.359 50.4973 126.332 50.4848 126.301C50.4723 126.27 50.4693 126.236 50.4762 126.204C50.483 126.171 50.4995 126.141 50.5235 126.118L51.9984 124.692L50.0169 123.875C49.9758 123.858 49.9431 123.826 49.926 123.785C49.9089 123.744 49.9088 123.697 49.9257 123.656C49.9427 123.615 49.9752 123.582 50.0163 123.565C50.0573 123.548 50.1035 123.548 50.1446 123.565L52.363 124.479C52.3888 124.49 52.4117 124.506 52.4294 124.528C52.4472 124.549 52.4593 124.575 52.4646 124.602C52.47 124.63 52.4684 124.658 52.4601 124.685C52.4517 124.711 52.4369 124.735 52.4169 124.755L50.7576 126.359C50.7263 126.389 50.6845 126.406 50.641 126.406H50.6401Z" fill="#6C63FF"/>
<path d="M48.1071 128.045C48.0904 128.045 48.0737 128.043 48.0578 128.038C48.0367 128.031 48.0171 128.021 48.0002 128.006C47.9832 127.992 47.9691 127.975 47.9588 127.956C47.9485 127.936 47.9421 127.915 47.9401 127.893C47.938 127.871 47.9403 127.849 47.9468 127.828L49.4955 122.793C49.502 122.772 49.5126 122.753 49.5267 122.736C49.5407 122.719 49.558 122.705 49.5775 122.694C49.597 122.684 49.6183 122.678 49.6403 122.676C49.6622 122.674 49.6844 122.676 49.7054 122.682C49.7265 122.689 49.7461 122.699 49.7631 122.713C49.7801 122.728 49.7941 122.745 49.8044 122.764C49.8147 122.784 49.8211 122.805 49.8232 122.827C49.8252 122.849 49.8229 122.871 49.8165 122.892L48.2677 127.927C48.2571 127.961 48.2358 127.991 48.2069 128.012C48.178 128.034 48.143 128.045 48.1071 128.045Z" fill="#6C63FF"/>
</svg>
