<svg width="854" height="776" viewBox="0 0 854 776" fill="none" xmlns="http://www.w3.org/2000/svg">
<g clip-path="url(#clip0_105_3461)">
<path d="M853.999 387.818C854.087 441.844 842.832 495.286 820.962 544.686C820.256 546.282 819.54 547.868 818.815 549.445C818.457 550.238 818.09 551.021 817.722 551.814C817.355 552.598 816.987 553.391 816.61 554.174C816.126 555.19 815.643 556.195 815.15 557.201C814.54 558.468 813.921 559.725 813.283 560.983C813.206 561.157 813.119 561.331 813.022 561.505C812.49 562.569 811.958 563.633 811.407 564.696C811.291 564.928 811.175 565.161 811.049 565.383C810.42 566.621 809.772 567.859 809.115 569.087V569.097C808.418 570.402 807.719 571.705 807.016 573.004C805.275 576.215 803.486 579.397 801.649 582.549C801.097 583.488 800.556 584.426 799.995 585.354C799.482 586.225 798.97 587.085 798.447 587.946C798.09 588.546 797.732 589.136 797.364 589.726C796.784 590.683 796.194 591.641 795.594 592.598C795.585 592.608 795.585 592.608 795.585 592.617C794.26 594.745 792.906 596.863 791.542 598.962H791.532C790.904 599.938 790.265 600.906 789.627 601.873V601.882C787.703 604.784 785.739 607.656 783.737 610.5V610.509C783.73 610.51 783.723 610.513 783.718 610.519V610.529L783.699 610.548C782.113 612.821 780.494 615.074 778.844 617.308V617.318C777.789 618.749 776.726 620.18 775.652 621.592C774.772 622.753 773.882 623.91 772.983 625.064C772.799 625.316 772.606 625.558 772.403 625.809V625.819C772.161 626.138 771.919 626.448 771.658 626.767V626.776C767.838 631.66 763.901 636.448 759.849 641.138H759.84C759.627 641.399 759.404 641.651 759.182 641.902C758.969 642.154 758.737 642.405 758.515 642.666H758.505C758.167 643.063 757.818 643.459 757.47 643.856C757.132 644.252 756.774 644.649 756.416 645.045V645.055C735.294 668.886 711.323 690.032 685.042 708.015C681.541 710.423 677.995 712.767 674.404 715.046C673.514 715.617 672.624 716.178 671.725 716.739C671.454 716.922 671.183 717.087 670.912 717.251C670.438 717.551 669.955 717.851 669.471 718.151C668.997 718.441 668.514 718.74 668.03 719.031C666.106 720.211 664.162 721.371 662.218 722.512C661.734 722.802 661.241 723.083 660.748 723.373C660.264 723.654 659.771 723.934 659.278 724.214C659.271 724.224 659.263 724.233 659.253 724.24C659.243 724.246 659.231 724.251 659.22 724.253L659.2 724.263L659.181 724.282H659.171C656.734 725.685 654.287 727.067 651.811 728.402C647.382 730.82 642.907 733.151 638.388 735.394C637.266 735.955 636.134 736.507 635.003 737.058C634.065 737.512 633.117 737.967 632.179 738.412C631.918 738.538 631.666 738.663 631.405 738.779C630.622 739.147 629.838 739.514 629.055 739.872C628.204 740.278 627.343 740.665 626.492 741.052C625.535 741.487 624.587 741.913 623.629 742.338C620.032 743.944 616.395 745.491 612.749 746.981C599.724 752.314 586.412 756.918 572.874 760.772C572.246 760.956 571.607 761.139 570.969 761.313C565.176 762.938 559.341 764.424 553.464 765.772C543.203 768.132 532.848 770.069 522.4 771.584C522.381 771.584 522.352 771.594 522.332 771.594C521.085 771.778 519.828 771.952 518.58 772.126C518.474 772.145 518.357 772.165 518.241 772.174C518.232 772.184 518.222 772.184 518.203 772.174C518.203 772.174 518.203 772.184 518.193 772.174C516.81 772.358 515.427 772.542 514.034 772.716C513.938 772.735 513.841 772.745 513.744 772.755C512.448 772.909 511.143 773.064 509.837 773.209C508.435 773.364 507.032 773.509 505.62 773.654C504.547 773.76 503.473 773.867 502.4 773.964C502.304 773.983 502.207 773.992 502.11 773.992C501.133 774.08 500.156 774.167 499.179 774.244C499.141 774.244 499.092 774.254 499.054 774.254C498.203 774.331 497.351 774.389 496.5 774.457C486.491 775.25 476.384 775.643 466.181 775.637C455.107 775.637 444.147 775.176 433.299 774.254C433.26 774.254 433.221 774.244 433.182 774.244C430.871 774.051 428.563 773.838 426.258 773.606C425.649 773.548 425.049 773.48 424.44 773.422C424.324 773.412 424.208 773.403 424.092 773.383C423.908 773.364 423.724 773.345 423.531 773.325C423.434 773.315 423.327 773.306 423.231 773.286C422.428 773.199 421.625 773.112 420.813 773.016C419.914 772.909 419.004 772.803 418.105 772.687C417.206 772.581 416.296 772.464 415.397 772.339C415.204 772.319 415 772.3 414.807 772.261C414.149 772.184 413.492 772.097 412.844 772C412.525 771.962 412.215 771.913 411.906 771.865C411.277 771.778 410.658 771.691 410.029 771.594C410.01 771.594 409.981 771.584 409.962 771.584C390.212 768.732 370.717 764.338 351.654 758.441H351.644C350.609 758.122 349.574 757.793 348.539 757.464C348.23 757.377 347.921 757.281 347.611 757.174C344.922 756.313 342.25 755.424 339.594 754.505C335.928 753.248 332.288 751.932 328.675 750.559C327.688 750.182 326.711 749.805 325.725 749.427C323.762 748.654 321.808 747.88 319.864 747.087C316.547 745.733 313.252 744.337 309.98 742.899H309.97V742.89C306.914 741.545 303.881 740.159 300.87 738.731C300.781 738.705 300.696 738.665 300.618 738.615C300.609 738.615 300.609 738.605 300.599 738.605C299.932 738.296 299.264 737.977 298.597 737.658L298.578 737.648C281.989 729.696 265.993 720.562 250.714 710.317C245.811 707.038 240.992 703.65 236.256 700.152C232.436 697.338 228.67 694.453 224.96 691.497C206.477 676.807 189.372 660.462 173.857 642.666H173.847V642.657C172.754 641.409 171.69 640.171 170.607 638.914V638.904C170.453 638.73 170.307 638.556 170.162 638.382C169.476 637.579 168.808 636.786 168.141 635.974V635.964C167.232 634.89 166.342 633.814 165.472 632.734C165.278 632.502 165.095 632.279 164.911 632.047H164.901V632.037C164.186 631.167 163.48 630.287 162.783 629.407C162.425 628.972 162.077 628.527 161.729 628.082H161.719V628.072C159.611 625.413 157.545 622.727 155.52 620.016V620.006C154.959 619.262 154.408 618.517 153.866 617.763H153.857C151.265 614.262 148.741 610.719 146.284 607.134V607.124C145.356 605.78 144.437 604.426 143.528 603.062C142.619 601.699 141.719 600.332 140.829 598.962H140.82C139.901 597.55 138.992 596.131 138.092 594.706C138.044 594.629 137.996 594.561 137.957 594.494C137.067 593.091 136.19 591.679 135.327 590.258C134.63 589.126 133.944 588.004 133.276 586.873C132.812 586.109 132.357 585.354 131.913 584.581C131.748 584.319 131.603 584.058 131.458 583.807C130.433 582.056 129.427 580.306 128.421 578.546C127.251 576.476 126.09 574.387 124.959 572.298C124.495 571.437 124.03 570.567 123.576 569.696C123.412 569.416 123.266 569.135 123.121 568.845C122.58 567.82 122.038 566.795 121.506 565.76C120.974 564.735 120.442 563.7 119.92 562.665C119.398 561.631 118.876 560.596 118.363 559.551C117.976 558.768 117.589 557.975 117.212 557.191C117.173 557.126 117.137 557.058 117.106 556.988C116.932 556.621 116.748 556.263 116.584 555.895C116.545 555.839 116.516 555.777 116.497 555.712C116.1 554.899 115.713 554.097 115.336 553.284C114.833 552.24 114.35 551.186 113.866 550.131C113.518 549.396 113.189 548.652 112.85 547.907C112.367 546.863 111.893 545.808 111.429 544.745C110.936 543.652 110.462 542.549 109.988 541.447C109.862 541.166 109.746 540.895 109.63 540.615C109.407 540.112 109.195 539.609 108.982 539.106C108.411 537.771 107.85 536.418 107.299 535.073C106.67 533.555 106.058 532.033 105.462 530.508C104.891 529.087 104.336 527.662 103.798 526.234L103.595 525.711V525.702C95.1916 503.616 88.8335 480.806 84.6006 457.558V457.548C82.187 444.275 80.4697 430.885 79.4555 417.432C79.3975 416.697 79.3491 415.962 79.3008 415.227C78.6625 406.126 78.3498 396.99 78.3627 387.818C78.3627 383.747 78.4272 379.694 78.5561 375.661C81.0637 291.346 111.12 210.173 164.128 144.557C166.458 141.665 168.831 138.809 171.246 135.988C242.368 52.7568 348.114 0 466.181 0C604.219 0 725.42 72.1187 794.134 180.737C797.712 186.366 801.136 192.097 804.405 197.932C837.022 255.897 854.106 321.307 853.999 387.818Z" fill="#F2F2F2"/>
<path d="M653.979 692.222C652.586 696.071 651.196 699.92 649.81 703.769C649.549 704.504 649.278 705.23 649.017 705.965C645.477 715.771 641.935 725.581 638.388 735.395C637.267 735.955 636.135 736.507 635.003 737.058C634.065 737.513 633.118 737.967 632.18 738.412C631.918 738.538 631.667 738.663 631.406 738.779C630.622 739.147 629.839 739.514 629.056 739.872C628.205 740.279 627.344 740.665 626.493 741.052C625.535 741.487 624.588 741.913 623.63 742.338C623.132 741.042 622.848 739.674 622.789 738.286C622.747 736.108 623.004 733.934 623.553 731.826C624.394 728.344 625.729 724.93 626.609 721.439C626.657 721.274 626.696 721.1 626.735 720.936C628.696 712.601 627.79 703.847 624.162 696.09C621.976 691.468 618.843 687.261 617.479 682.328C616.294 677.697 616.82 672.793 618.959 668.518C619.753 666.859 620.75 665.306 621.928 663.895C622.208 663.537 622.508 663.198 622.818 662.86C625.662 659.735 629.442 657.615 633.591 656.815C641.532 655.403 649.829 659.63 654.269 666.264C656.088 668.93 657.196 672.016 657.489 675.229C657.973 681.042 655.961 686.738 653.979 692.222Z" fill="#E4E4E4"/>
<path d="M632.053 731.506C630.235 728.151 627.189 725.21 626.608 721.439C624.722 709.33 620.177 700.645 612.643 695.723C610.457 694.301 610.109 691.158 608.765 688.895C608.165 687.879 607.556 686.864 606.927 685.868C605.912 684.214 604.854 682.592 603.755 681.003C601.671 677.931 599.373 675.009 596.879 672.26C595.844 671.109 594.751 669.997 593.62 668.943L593.61 668.933C592.904 668.256 592.188 667.608 591.444 666.98C591.153 666.728 590.854 666.477 590.544 666.225L590.525 666.206C589.218 665.073 587.849 664.014 586.424 663.034C583.146 660.819 579.441 659.281 575.641 660.51C574.147 661.022 572.708 661.683 571.347 662.483C570.65 662.879 569.964 663.295 569.277 663.711C568.813 663.991 568.348 664.272 567.884 664.562C567.507 664.784 567.13 665.007 566.753 665.22C563.832 666.902 560.898 668.553 557.952 670.171C557.526 670.413 557.101 670.645 556.666 670.877H556.656C556.356 671.051 556.047 671.216 555.737 671.38C555.147 671.709 554.548 672.038 553.958 672.357C552.188 673.314 550.415 674.262 548.638 675.2C547.729 675.684 546.811 676.148 545.892 676.612C545.466 676.825 545.041 677.038 544.625 677.26H544.615C544.46 677.338 544.315 677.415 544.161 677.492C542.903 678.14 541.665 678.808 540.466 679.533C536.988 681.628 533.965 684.401 531.578 687.686C531.114 688.324 530.669 688.982 530.263 689.659C529.73 690.534 529.246 691.438 528.812 692.367C528.512 692.995 528.232 693.624 527.981 694.262V694.272C525.603 700.385 525.27 707.103 527.033 713.421V713.431C527.149 713.866 527.275 714.292 527.42 714.717C527.652 715.433 527.913 716.148 528.203 716.845C528.523 717.621 528.885 718.38 529.286 719.118V719.127C531.438 722.799 534.124 726.13 537.255 729.011L537.352 729.108C537.739 729.485 538.135 729.872 538.522 730.249C538.735 730.452 538.957 730.655 539.19 730.849C542.536 733.721 547.942 735.897 550.998 738.847C552.633 740.423 553.59 742.213 553.213 744.447C552.207 750.375 552.43 754.215 553.455 756.681C556.24 763.412 564.983 759.988 570.969 761.313C571.608 761.139 572.246 760.956 572.875 760.772C586.412 756.918 599.724 752.314 612.749 746.981C616.395 745.491 620.032 743.944 623.629 742.338C624.587 741.913 625.535 741.487 626.492 741.052C627.343 740.665 628.204 740.278 629.055 739.872C629.838 739.514 630.622 739.147 631.405 738.779C631.666 738.663 631.918 738.537 632.179 738.412C633.117 737.967 634.065 737.512 635.003 737.058C634.046 735.191 633.049 733.344 632.053 731.506Z" fill="#E4E4E4"/>
<path d="M561.295 637.612C563.327 631.473 560.532 627.422 553.339 625.273C553.093 625.05 552.795 624.893 552.473 624.815C552.151 624.737 551.814 624.741 551.494 624.827C551.173 624.913 550.88 625.078 550.64 625.307C550.399 625.535 550.221 625.821 550.119 626.137L543.839 644.745C537.27 643.064 532.452 644.216 531.406 650.713C533.998 644.095 531.56 639.944 524.266 638.173C524.029 637.937 523.736 637.764 523.414 637.671C523.093 637.579 522.753 637.569 522.427 637.643C522.101 637.717 521.798 637.872 521.548 638.094C521.298 638.317 521.108 638.598 520.996 638.914L516.866 655.674C511.836 663.251 509.366 672.24 509.818 681.323C510.27 690.406 513.62 699.106 519.377 706.146C525.134 713.186 532.995 718.197 541.808 720.444C550.62 722.69 559.921 722.054 568.346 718.629C576.77 715.204 583.876 709.17 588.622 701.412C593.367 693.654 595.502 684.579 594.713 675.519C593.925 666.459 590.254 657.889 584.24 651.068C578.226 644.246 570.184 639.53 561.295 637.612Z" fill="#E4E4E4"/>
<path d="M557.296 690.646C556.447 691.1 555.453 691.199 554.531 690.921C553.609 690.643 552.835 690.011 552.379 689.163C552.315 689.042 552.301 688.9 552.341 688.768C552.381 688.637 552.471 688.527 552.592 688.462C552.713 688.397 552.855 688.383 552.986 688.422C553.118 688.462 553.228 688.551 553.293 688.672C553.619 689.277 554.172 689.728 554.83 689.926C555.488 690.124 556.198 690.053 556.804 689.728C557.409 689.403 557.861 688.851 558.06 688.193C558.259 687.535 558.189 686.825 557.865 686.219C557.8 686.098 557.786 685.956 557.826 685.825C557.866 685.694 557.956 685.583 558.077 685.518C558.198 685.454 558.34 685.439 558.471 685.479C558.603 685.518 558.713 685.608 558.779 685.729C559.233 686.578 559.332 687.572 559.054 688.494C558.776 689.415 558.144 690.189 557.296 690.646Z" fill="white"/>
<path d="M553.495 683.016C555.515 681.932 556.814 680.424 556.398 679.647C555.981 678.87 554.006 679.119 551.986 680.203C549.966 681.286 548.667 682.795 549.084 683.572C549.501 684.348 551.476 684.099 553.495 683.016Z" fill="white"/>
<path d="M532.028 684.332C532.301 683.007 532.862 681.759 533.67 680.675C534.479 679.591 535.516 678.698 536.707 678.058C537.899 677.419 539.216 677.049 540.566 676.975C541.916 676.9 543.267 677.123 544.521 677.628C545.152 675.698 545.197 673.624 544.65 671.669C544.102 669.713 542.987 667.964 541.446 666.643C539.905 665.321 538.006 664.486 535.99 664.243C533.974 664.001 531.931 664.362 530.12 665.28C528.309 666.198 526.811 667.633 525.816 669.403C524.82 671.172 524.372 673.197 524.527 675.222C524.683 677.247 525.435 679.18 526.689 680.777C527.943 682.374 529.642 683.563 531.572 684.194C531.723 684.243 531.875 684.289 532.028 684.332Z" fill="white"/>
<path d="M535.096 680.605C537.046 680.605 538.628 679.023 538.628 677.073C538.628 675.123 537.046 673.542 535.096 673.542C533.146 673.542 531.564 675.123 531.564 677.073C531.564 679.023 533.146 680.605 535.096 680.605Z" fill="#3F3D56"/>
<path d="M556.475 671.623C556.748 670.298 557.308 669.05 558.117 667.966C558.925 666.882 559.962 665.989 561.153 665.35C562.345 664.71 563.662 664.34 565.013 664.266C566.363 664.191 567.713 664.414 568.967 664.919C569.599 662.989 569.643 660.915 569.096 658.96C568.549 657.005 567.434 655.256 565.892 653.934C564.351 652.612 562.452 651.777 560.436 651.535C558.42 651.292 556.378 651.653 554.567 652.571C552.756 653.489 551.258 654.924 550.262 656.694C549.267 658.464 548.818 660.489 548.973 662.513C549.129 664.538 549.881 666.471 551.135 668.068C552.389 669.665 554.088 670.854 556.018 671.485C556.169 671.535 556.321 671.58 556.475 671.623Z" fill="white"/>
<path d="M560.837 667.699C562.788 667.699 564.369 666.118 564.369 664.167C564.369 662.217 562.788 660.636 560.837 660.636C558.887 660.636 557.306 662.217 557.306 664.167C557.306 666.118 558.887 667.699 560.837 667.699Z" fill="#3F3D56"/>
<path d="M578.56 663.923L566.502 676.21L567.719 677.404L579.777 665.117L578.56 663.923Z" fill="white"/>
<path d="M582.392 669.868L567.823 679.04L568.732 680.483L583.3 671.311L582.392 669.868Z" fill="white"/>
<path d="M540.634 690.091L523.729 693.346L524.052 695.02L540.957 691.765L540.634 690.091Z" fill="white"/>
<path d="M542.262 692.756L526.565 699.825L527.266 701.38L542.963 694.311L542.262 692.756Z" fill="white"/>
<path d="M44.4423 430.458C11.3758 400.698 -8.64621 353.373 3.65836 310.623C31.4266 350.238 72.312 378.753 119.081 391.125C137.135 395.831 157.705 399.185 168.689 414.266C175.524 423.65 177.111 436.051 175.493 447.546C173.875 459.042 169.353 469.899 164.872 480.608L165.109 483.497C121.442 475 77.5089 460.217 44.4423 430.458Z" fill="#E6E6E6"/>
<path d="M4.58219 310.758C12.9863 346.21 32.7708 379.207 60.5317 402.887C66.5336 408.007 73.0675 412.678 80.3969 415.698C87.5637 418.587 95.3733 419.504 103.014 418.354C110.16 417.424 117.362 415.646 124.61 416.47C132.249 417.339 138.631 421.619 143.09 427.783C148.545 435.324 150.965 444.376 153.024 453.31C155.31 463.23 157.528 473.569 164.077 481.676C164.87 482.659 163.3 483.832 162.507 482.852C151.113 468.747 152.672 449.222 144.42 433.636C140.569 426.363 134.503 420.207 126.149 418.679C118.843 417.343 111.415 419.17 104.187 420.174C96.5986 421.228 89.2564 420.973 81.9758 418.401C74.5281 415.771 67.7978 411.345 61.6914 406.401C47.9279 395.088 36.029 381.68 26.4304 366.67C15.3806 349.6 7.33239 330.765 2.63387 310.981C2.34355 309.756 4.29379 309.541 4.58219 310.758Z" fill="white"/>
<path d="M51.102 395.666C46.4294 399.794 40.4417 402.126 34.2083 402.246C27.9749 402.367 21.9016 400.267 17.0731 396.323C16.0989 395.522 17.2985 393.97 18.274 394.773C22.7635 398.454 28.4209 400.409 34.2253 400.285C40.0296 400.161 45.5984 397.966 49.9267 394.097C50.8683 393.257 52.0382 394.831 51.102 395.666Z" fill="white"/>
<path d="M99.4532 419.302C100.355 406.589 96.4318 394.004 88.4663 384.055C87.6762 383.07 89.2466 381.896 90.0356 382.88C98.3054 393.248 102.361 406.354 101.394 419.581C101.301 420.841 99.3606 420.556 99.4532 419.302Z" fill="white"/>
<path d="M17.9445 349.17C20.0852 347.95 21.8893 346.217 23.1948 344.127C24.5003 342.037 25.2663 339.656 25.424 337.197C25.501 335.936 27.4413 336.223 27.3647 337.476C27.1779 340.192 26.3287 342.821 24.8915 345.133C23.4542 347.445 21.4726 349.37 19.1198 350.74C18.9088 350.887 18.6495 350.949 18.3946 350.913C18.1397 350.876 17.9083 350.744 17.7474 350.543C17.5928 350.334 17.5268 350.073 17.5637 349.816C17.6006 349.559 17.7374 349.327 17.9445 349.17Z" fill="white"/>
<path d="M141.751 250.48C141.725 251.269 141.7 252.058 141.687 252.857C141.396 263.465 141.968 274.079 143.396 284.594C143.494 285.409 143.605 286.233 143.725 287.044C147.436 312.341 155.811 336.73 168.425 358.97C173.453 367.815 179.146 376.265 185.456 384.247C194.17 395.269 204.495 406.527 208.929 419.405C209.407 420.743 209.801 422.11 210.11 423.497L168.615 482.983C168.452 483.071 168.303 483.169 168.141 483.258L166.593 485.708C166.238 485.32 165.879 484.909 165.525 484.52C165.319 484.295 165.122 484.057 164.915 483.832C164.781 483.678 164.646 483.523 164.516 483.392C164.471 483.341 164.427 483.289 164.395 483.248C164.265 483.116 164.158 482.98 164.041 482.859C162.028 480.567 160.028 478.257 158.04 475.929C158.027 475.92 158.027 475.92 158.022 475.897C142.923 458.12 129.175 438.927 118.777 418.257C118.464 417.635 118.138 417.004 117.844 416.355C113.209 407.012 109.345 397.306 106.291 387.333C104.636 381.867 103.26 376.321 102.166 370.716C99.3674 356.227 98.8654 341.388 100.678 326.744C104.296 297.551 117.21 269.839 139.997 251.838C140.58 251.378 141.154 250.93 141.751 250.48Z" fill="#E6E6E6"/>
<path d="M142.413 251.14C127.779 284.507 123.709 322.764 131.618 358.386C133.327 366.087 135.732 373.751 139.766 380.575C143.749 387.196 149.432 392.63 156.226 396.312C162.491 399.873 169.312 402.789 174.602 407.811C180.179 413.104 182.698 420.364 182.547 427.969C182.362 437.275 178.844 445.959 175.109 454.332C170.963 463.629 166.508 473.22 166.856 483.636C166.898 484.898 164.937 484.889 164.895 483.629C164.29 465.507 177.289 450.856 180.084 433.443C181.389 425.318 180.252 416.75 174.501 410.501C169.473 405.036 162.441 402.022 156.067 398.472C149.373 394.744 143.664 390.12 139.399 383.684C135.036 377.099 132.327 369.514 130.428 361.89C126.25 344.57 124.822 326.701 126.195 308.937C127.65 288.654 132.564 268.77 140.723 250.145C141.229 248.992 142.916 249.995 142.413 251.14Z" fill="white"/>
<path d="M128.436 346.943C122.22 347.425 116.035 345.682 110.985 342.025C105.936 338.369 102.351 333.036 100.87 326.98C100.575 325.753 102.467 325.237 102.762 326.465C104.131 332.107 107.471 337.074 112.18 340.47C116.889 343.865 122.657 345.466 128.442 344.982C129.7 344.879 129.686 346.84 128.436 346.943Z" fill="white"/>
<path d="M152.811 394.926C161.185 385.318 165.63 372.907 165.26 360.168C165.222 358.906 167.183 358.913 167.22 360.174C167.581 373.432 162.929 386.338 154.193 396.316C153.359 397.267 151.982 395.871 152.811 394.926Z" fill="white"/>
<path d="M129.955 289.855C132.399 290.17 134.883 289.873 137.184 288.99C139.484 288.107 141.53 286.667 143.136 284.799C143.957 283.838 145.333 285.235 144.518 286.19C142.733 288.246 140.473 289.834 137.933 290.814C135.393 291.795 132.652 292.139 129.949 291.816C129.691 291.807 129.447 291.7 129.266 291.518C129.084 291.335 128.979 291.09 128.972 290.833C128.974 290.573 129.078 290.325 129.263 290.142C129.447 289.959 129.696 289.856 129.955 289.855Z" fill="white"/>
<path d="M520.818 254.447C526.583 222.566 517.003 186.389 490.852 167.265C492.533 202.457 481.712 237.109 460.304 265.091C452.008 275.852 441.661 286.958 442.064 300.54C442.315 308.991 446.932 316.838 452.99 322.735C459.049 328.632 466.494 332.865 473.85 337.032L475.002 338.801C496.353 314.433 515.054 286.328 520.818 254.447Z" fill="#E6E6E6"/>
<path d="M490.381 167.755C501.463 192.174 504.57 219.465 499.259 245.75C498.216 251.429 496.285 256.908 493.536 261.986C490.698 266.845 486.611 270.856 481.698 273.602C477.17 276.254 472.23 278.443 468.425 282.149C466.506 284.076 465.015 286.386 464.051 288.929C463.087 291.472 462.671 294.19 462.831 296.905C463.054 303.679 465.698 309.97 468.497 316.032C471.605 322.763 474.94 329.704 474.785 337.293C474.766 338.212 476.194 338.188 476.213 337.269C476.482 324.067 466.877 313.521 464.676 300.867C463.649 294.963 464.396 288.713 468.524 284.107C472.135 280.08 477.226 277.819 481.835 275.173C486.666 272.565 490.785 268.813 493.832 264.246C496.831 259.325 498.97 253.929 500.158 248.29C503.036 235.638 503.907 222.612 502.739 209.689C501.487 194.933 497.72 180.5 491.601 167.014C491.222 166.179 490.004 166.926 490.381 167.755Z" fill="white"/>
<path d="M501.467 237.386C505.998 237.679 510.485 236.351 514.128 233.64C517.77 230.929 520.33 227.012 521.351 222.588C521.555 221.692 520.172 221.334 519.968 222.231C519.025 226.352 516.64 230.001 513.243 232.518C509.846 235.036 505.661 236.256 501.444 235.959C500.527 235.895 500.555 237.323 501.467 237.386Z" fill="white"/>
<path d="M484.172 272.559C477.983 265.642 474.629 256.647 474.777 247.366C474.793 246.447 473.365 246.471 473.35 247.39C473.213 257.047 476.723 266.402 483.179 273.585C483.795 274.27 484.785 273.24 484.172 272.559Z" fill="white"/>
<path d="M499.819 195.829C498.043 196.081 496.231 195.888 494.547 195.267C492.864 194.646 491.361 193.617 490.173 192.272C489.566 191.58 488.577 192.61 489.18 193.298C490.499 194.778 492.16 195.913 494.019 196.603C495.878 197.293 497.877 197.518 499.843 197.257C500.03 197.248 500.207 197.168 500.337 197.033C500.468 196.898 500.542 196.719 500.545 196.531C500.541 196.342 500.463 196.163 500.327 196.031C500.191 195.9 500.009 195.827 499.819 195.829Z" fill="white"/>
<path d="M384.523 194.229C384.89 194.671 385.257 195.114 385.62 195.569C390.519 201.546 394.924 207.912 398.792 214.603C399.099 215.116 399.403 215.64 399.694 216.16C408.841 232.38 414.897 250.156 417.554 268.587C418.604 275.921 419.095 283.326 419.022 290.735C418.921 300.967 417.997 312.054 421.189 321.446C421.511 322.429 421.893 323.392 422.334 324.328L472.755 340.069C472.888 340.047 473.017 340.037 473.15 340.016L475.135 340.736C475.165 340.354 475.189 339.958 475.219 339.576C475.238 339.354 475.245 339.129 475.263 338.908C475.272 338.759 475.281 338.61 475.297 338.477C475.3 338.427 475.303 338.377 475.302 338.339C475.319 338.206 475.32 338.08 475.333 337.957C475.469 335.74 475.591 333.518 475.697 331.292C475.7 331.28 475.7 331.28 475.693 331.265C476.458 314.296 475.812 297.114 472.58 280.576C472.482 280.079 472.389 279.57 472.269 279.065C470.77 271.619 468.666 264.307 465.976 257.204C464.491 253.319 462.81 249.512 460.94 245.797C456.089 236.207 449.76 227.44 442.184 219.817C427.081 204.624 407.287 194.429 386.139 194.228C385.598 194.223 385.068 194.222 384.523 194.229Z" fill="#E6E6E6"/>
<path d="M384.437 194.904C407.988 207.729 426.899 227.649 438.485 251.833C441.071 256.996 442.828 262.533 443.69 268.242C444.35 273.831 443.502 279.494 441.233 284.644C439.213 289.488 436.587 294.21 435.781 299.46C435.408 302.154 435.609 304.896 436.37 307.507C437.131 310.118 438.436 312.538 440.198 314.609C444.455 319.885 450.353 323.316 456.238 326.47C462.772 329.973 469.614 333.508 474.059 339.66C474.598 340.405 475.723 339.526 475.185 338.782C467.451 328.078 453.432 325.441 444.057 316.663C439.682 312.566 436.515 307.127 437.039 300.964C437.496 295.575 440.201 290.704 442.287 285.817C444.574 280.825 445.604 275.35 445.288 269.869C444.719 264.134 443.179 258.538 440.732 253.32C435.413 241.485 428.265 230.56 419.552 220.946C409.668 209.917 397.971 200.661 384.966 193.577C384.161 193.139 383.637 194.469 384.437 194.904Z" fill="white"/>
<path d="M435.212 243.826C439.006 241.332 441.79 237.57 443.066 233.212C444.342 228.855 444.028 224.186 442.179 220.038C441.802 219.201 440.483 219.747 440.86 220.586C442.589 224.445 442.881 228.794 441.684 232.849C440.488 236.904 437.881 240.398 434.334 242.7C433.564 243.201 434.447 244.325 435.212 243.826Z" fill="white"/>
<path d="M442.579 282.323C433.473 280.526 425.379 275.364 419.91 267.864C419.369 267.121 418.243 268 418.784 268.742C424.489 276.536 432.924 281.891 442.404 283.74C443.308 283.916 443.478 282.497 442.579 282.323Z" fill="white"/>
<path d="M408.876 211.637C407.609 212.908 406.047 213.845 404.328 214.363C402.61 214.881 400.79 214.964 399.032 214.604C398.131 214.417 397.962 215.836 398.857 216.021C400.801 216.409 402.811 216.315 404.711 215.747C406.61 215.179 408.342 214.155 409.754 212.763C409.898 212.643 409.991 212.473 410.014 212.286C410.037 212.1 409.989 211.912 409.878 211.761C409.761 211.612 409.59 211.516 409.402 211.493C409.215 211.47 409.026 211.522 408.876 211.637Z" fill="white"/>
<path d="M126.959 365.591C133.94 365.591 140.634 368.364 145.57 373.3C150.506 378.236 153.279 384.931 153.279 391.911C153.278 398.017 151.155 403.932 147.273 408.645C143.391 413.357 137.992 416.574 131.999 417.744V460.792H115.199V365.591H126.959Z" fill="#3F3D56"/>
<path d="M771.661 617.759V626.773C767.841 631.657 763.905 636.444 759.852 641.135C759.417 641.647 758.972 642.15 758.518 642.663C757.831 643.466 757.125 644.259 756.419 645.052V617.759H771.661Z" fill="#CACACA"/>
<path d="M726.94 598.958C723.571 598.962 720.341 600.302 717.959 602.684C715.577 605.067 714.236 608.297 714.232 611.666V629.955C714.236 633.324 715.577 636.554 717.959 638.936C720.341 641.318 723.571 642.659 726.94 642.663H758.517C758.972 642.15 759.417 641.647 759.852 641.135C763.904 636.444 767.84 631.657 771.66 626.773C771.912 626.453 772.163 626.134 772.405 625.815C774.591 623.02 776.738 620.177 778.846 617.314C780.49 615.07 782.125 612.807 783.721 610.525C783.73 610.515 783.74 610.515 783.74 610.506C786.409 606.714 789.011 602.865 791.545 598.958H726.94Z" fill="#3F3D56"/>
<path d="M808.248 442.419C806.306 441.749 804.266 441.409 802.213 441.413H797.019C795.128 441.414 793.247 441.698 791.439 442.255C787.626 443.453 784.294 445.836 781.927 449.056C779.56 452.277 778.281 456.169 778.276 460.166V612.73C778.276 613.301 778.305 613.862 778.354 614.413C778.438 615.392 778.603 616.363 778.847 617.314C780.491 615.071 782.126 612.808 783.721 610.525C783.731 610.515 783.741 610.515 783.741 610.506C786.41 606.715 789.012 602.865 791.545 598.958C792.909 596.86 794.263 594.742 795.588 592.614C805.162 577.253 813.643 561.236 820.965 544.683V460.166C820.961 456.251 819.733 452.435 817.452 449.253C815.172 446.071 811.954 443.681 808.248 442.419Z" fill="#3F3D56"/>
<path d="M168.144 617.759V635.97C163.792 630.767 159.585 625.448 155.523 620.013C154.962 619.268 154.411 618.514 153.859 617.759H168.144Z" fill="#CACACA"/>
<path d="M197.622 598.958H140.822C142.611 601.714 144.433 604.438 146.287 607.13C148.743 610.718 151.267 614.261 153.859 617.759C154.41 618.513 154.962 619.268 155.523 620.012C159.594 625.448 163.801 630.767 168.144 635.97C168.956 636.956 169.778 637.933 170.61 638.91C171.674 640.167 172.754 641.418 173.85 642.663H197.622C200.99 642.658 204.219 641.318 206.599 638.935C208.98 636.553 210.318 633.323 210.32 629.955V611.666C210.318 608.298 208.98 605.068 206.599 602.686C204.219 600.303 200.99 598.962 197.622 598.958Z" fill="#3F3D56"/>
<path d="M136.2 443.531C133.522 442.143 130.55 441.416 127.534 441.413H122.35C119.897 441.41 117.468 441.893 115.203 442.835C111.772 444.252 108.838 446.655 106.772 449.74C104.706 452.825 103.602 456.453 103.598 460.166V525.708C113.363 551.38 125.842 575.936 140.822 598.958C142.612 601.715 144.433 604.439 146.287 607.13V460.166C146.284 456.736 145.343 453.373 143.565 450.441C141.786 447.508 139.239 445.119 136.2 443.531Z" fill="#3F3D56"/>
<path d="M347.483 726.786L364.52 722.877L357.551 655.302L332.405 661.072L347.483 726.786Z" fill="#9E616A"/>
<path d="M362.982 668.156C362.633 666.966 362.397 665.745 362.276 664.51C362.134 663.051 361.849 661.61 361.425 660.207C360.941 658.93 360.342 657.7 359.636 656.532C359.297 655.913 358.939 655.294 358.62 654.665C358.299 654.037 358.021 653.387 357.788 652.721C347.817 623.272 333.9 583.252 324.248 559.828C318.571 546.047 283.658 541.463 250.718 540.292C246.704 540.147 242.72 540.051 238.822 540.002C237.478 539.983 236.143 539.964 234.818 539.954C231.433 539.935 228.135 539.935 224.963 539.973C224.547 539.973 224.131 539.973 223.715 539.983C221.404 540.002 219.164 540.034 216.994 540.08C202.081 540.37 191.123 541.047 189.17 541.172L171.771 530.234L168.376 528.097L168.019 530.234L165.282 546.54L160.61 574.364L172.322 577.653L179.924 579.78L224.963 592.411L234.538 595.1L234.596 595.119L250.718 595.09L294.799 595.013L296.927 600.651C296.163 601.837 295.66 603.173 295.453 604.569C295.245 605.965 295.336 607.389 295.722 608.746C296.107 610.104 296.776 611.364 297.686 612.443C298.596 613.522 299.725 614.394 300.999 615.003L302.652 615.786L322.798 669.094C322.86 673.916 324.365 678.609 327.121 682.567C327.459 683.06 327.827 683.543 328.214 684.017L328.659 684.549L336.405 699.704L341.018 698.64L360.651 694.143L360.748 693.95C360.758 693.921 361.009 693.389 361.376 692.46V692.431C362.914 688.592 366.319 678.098 362.982 668.156Z" fill="#2F2E41"/>
<path d="M410.844 731.281C410.111 728.032 408.742 724.961 406.817 722.243C404.891 719.526 402.447 717.216 399.626 715.447C396.804 713.678 393.66 712.485 390.376 711.936C387.091 711.386 383.73 711.493 380.486 712.248L366.879 706.106L363.068 708.785L347.265 719.869L345.96 720.168L341.724 721.136L347.575 746.639L411.038 732.083L410.844 731.281Z" fill="#2F2E41"/>
<path d="M326.666 691.957L320.912 738.612L320.719 740.14L319.867 747.093C316.55 745.739 313.243 744.337 309.974 742.896C306.918 741.552 303.884 740.165 300.873 738.737V691.967L326.666 691.957Z" fill="#9E616A"/>
<path d="M201.796 371.226C221.063 371.226 236.683 355.607 236.683 336.339C236.683 317.071 221.063 301.451 201.796 301.451C182.528 301.451 166.908 317.071 166.908 336.339C166.908 355.607 182.528 371.226 201.796 371.226Z" fill="#9E616A"/>
<path d="M330.37 709.762C329.403 708.437 328.397 707.054 328.339 705.729C328.116 701.058 327.884 696.435 327.643 691.909C327.468 688.746 327.294 685.623 327.12 682.566C327.101 682.18 327.072 681.793 327.053 681.416C326.753 676.357 328.252 671.019 329.693 665.845C330.167 664.152 330.641 662.441 331.066 660.729C332.13 656.914 332.577 652.953 332.391 648.997C329.915 617.672 318.851 588.213 313.89 583.252C306.346 575.708 272.236 558.281 250.717 547.681C246.897 545.795 243.473 544.132 240.669 542.778C238.183 541.569 236.181 540.611 234.818 539.954C233.773 539.461 233.096 539.141 232.864 539.025L232.748 538.967L224.963 539.838L223.715 539.983L216.848 540.756L172.177 545.766L165.281 546.54L155.523 547.642L146.712 548.629L146.383 548.658L146.325 548.987C146.325 548.996 146.306 549.064 146.287 549.19C144.772 558.75 144.772 568.489 146.287 578.049C147.428 584.538 149.585 591.134 153.414 596.685C153.937 597.44 154.478 598.165 155.059 598.862C155.078 598.898 155.104 598.931 155.136 598.958C155.262 599.113 155.387 599.268 155.523 599.422V599.432C159.903 604.527 165.784 608.105 172.322 609.655C173.289 609.916 174.275 610.129 175.291 610.303C186.113 612.218 198.338 613.978 210.32 615.525C215.282 616.163 220.204 616.763 224.963 617.324C234.489 618.446 243.386 619.394 250.717 620.148C260.988 621.193 268.203 621.84 269.808 621.976L287.749 705.671C286.341 708.052 285.779 710.839 286.155 713.58C286.53 716.321 287.821 718.854 289.818 720.768L291.288 722.19L292.99 730.159L298.6 737.664L299.306 738.612H324.054L324.19 738.447C324.277 738.331 332.981 727.151 332.391 713.834C332.333 712.46 331.376 711.155 330.37 709.762Z" fill="#2F2E41"/>
<path d="M329.694 429.261C327.82 428.749 325.856 428.653 323.941 428.982C322.026 429.311 320.206 430.055 318.61 431.163C317.014 432.271 315.681 433.716 314.703 435.395C313.726 437.074 313.128 438.947 312.953 440.882L283.966 449.942L285.175 468.9L325.931 455.531C329.201 455.61 332.387 454.486 334.884 452.374C337.381 450.261 339.017 447.305 339.481 444.067C339.944 440.829 339.204 437.533 337.4 434.804C335.597 432.076 332.855 430.103 329.694 429.261Z" fill="#9E616A"/>
<path d="M310.781 460.633L289.116 468.833L288.562 469.908C287.905 471.183 287.002 472.317 285.906 473.244C284.811 474.171 283.543 474.873 282.176 475.311C280.809 475.748 279.369 475.911 277.938 475.792C276.508 475.673 275.115 475.273 273.839 474.615L225.144 493.045C225.144 493.045 203.398 471.284 187.915 451.862L193.192 419.406C194.414 411.876 197.011 404.635 200.855 398.045C232.607 405.007 250.833 449.394 250.833 449.394L308.058 438.475L310.781 460.633Z" fill="#008080"/>
<path d="M196.838 369.361C188.104 371.72 178.475 368.584 171.659 362.635C164.843 356.686 160.579 348.257 158.123 339.55C156.323 333.173 155.47 326.095 158.31 320.108C161.149 314.121 168.79 310.082 174.686 313.106C171.049 308.869 172.866 301.861 177.114 298.236C181.361 294.611 187.194 293.572 192.749 293.004C200.811 292.179 209.138 292.087 216.81 294.699C224.481 297.311 231.452 303.021 233.853 310.761C236.305 311.903 239.066 312.199 241.705 311.603C244.343 311.008 246.71 309.554 248.434 307.469C248.878 309.863 248.521 312.337 247.418 314.508C246.315 316.679 244.527 318.426 242.331 319.478L254.086 315.667C256.107 319.946 252.565 325.242 248.035 326.612C243.506 327.982 238.616 326.485 234.318 324.505C230.019 322.525 225.854 320.023 221.185 319.25C216.516 318.478 211.032 319.979 208.872 324.189C207.741 326.395 207.682 328.978 207.025 331.368C206.368 333.758 204.705 336.236 202.234 336.432C200.673 336.555 199.144 335.724 197.588 335.894C196.632 336.082 195.752 336.544 195.056 337.225C194.36 337.905 193.877 338.774 193.666 339.725C193.279 341.633 193.274 343.599 193.653 345.508L196.638 368.331L196.838 369.361Z" fill="#2F2E41"/>
<path d="M240.669 542.778L238.822 540.002L225.34 519.779L225.069 519.383L229.238 497.758L230.534 491.007L233.367 476.317L232.545 442.69L231.955 418.898L231.868 415.165L228.88 406.055C227.463 401.795 225.187 397.87 222.193 394.525C219.198 391.18 215.549 388.484 211.472 386.606L191.355 377.399C188.988 376.321 186.289 376.228 183.853 377.14C181.417 378.052 179.443 379.894 178.366 382.261C178.275 382.459 178.192 382.66 178.115 382.863C175.359 383.24 163.396 385.252 153.25 393.124C146.143 398.532 141.182 406.282 139.246 415.001C139.227 415.068 139.217 415.136 139.198 415.204C137.854 421.21 136.848 430.688 136.2 443.531C135.765 452.022 135.491 461.971 135.378 473.377C135.197 492.388 136.267 511.391 138.579 530.263C138.802 532.062 139.034 533.851 139.275 535.65C139.479 537.159 140.929 538.6 142.332 539.983C143.618 541.25 144.943 542.565 145.127 543.754C145.291 544.799 144.624 545.892 143.831 547.033C143.734 547.178 143.628 547.323 143.531 547.468C142.544 548.871 141.529 550.331 141.79 551.869C142.399 555.331 142.757 558.851 143.096 562.256C143.474 566.943 144.152 571.601 145.127 576.202C145.465 577.614 145.852 579.035 146.287 580.457C147.303 583.794 148.531 587.12 149.73 590.37C150.765 593.194 151.838 596.095 152.748 598.958C152.922 599.49 153.086 600.012 153.241 600.535L153.318 600.805L153.599 600.854H153.618C153.999 600.174 154.453 599.539 154.972 598.958C154.995 598.921 155.025 598.889 155.059 598.861C155.194 598.697 155.349 598.523 155.523 598.339C157.641 596.028 162.245 591.879 172.322 584.886C174.576 583.329 177.1 581.637 179.924 579.78C190.282 573 204.75 564.171 224.963 552.768C230.031 549.905 235.469 546.878 241.278 543.687L240.669 542.778Z" fill="#008080"/>
<path d="M349.152 755.527C346.803 753.168 344.01 751.298 340.934 750.025C337.858 748.751 334.56 748.1 331.231 748.109L320.718 740.14L319.335 739.085L309.974 742.896C313.243 744.337 316.55 745.739 319.867 747.093C330.245 751.329 340.841 755.114 351.657 758.447C350.897 757.412 350.059 756.436 349.152 755.527Z" fill="#2F2E41"/>
<path d="M582.646 726.127L569.479 719.831L587.566 664.796L606.998 674.09L582.646 726.127Z" fill="#FFB6B6"/>
<path d="M670.915 717.257C667.085 719.646 663.207 721.967 659.281 724.221V724.25L659.223 724.259L659.203 724.269L657.714 724.637L655.577 718.989L650.644 705.961L637.201 670.468L658.101 665.313L659.281 670.1L668.12 705.952L670.654 716.203L670.915 717.257Z" fill="#FFB6B6"/>
<path d="M617.612 486.925C619.49 489.975 622.485 492.17 625.959 493.041C629.434 493.913 633.111 493.392 636.206 491.59C636.828 491.213 637.419 490.785 637.97 490.311L679.596 514.199L677.788 489.677L638.537 470.752C636.401 468.607 633.614 467.231 630.612 466.84C627.61 466.449 624.563 467.065 621.949 468.592C618.957 470.388 616.801 473.3 615.955 476.686C615.11 480.073 615.644 483.656 617.441 486.648C617.497 486.741 617.554 486.833 617.612 486.925Z" fill="#FFB6B6"/>
<path d="M661.7 505.203L669.058 509.688L702.104 529.839C704.274 531.196 706.689 532.113 709.212 532.537C711.736 532.96 714.318 532.883 716.811 532.309C719.305 531.735 721.661 530.675 723.745 529.19C725.829 527.706 727.6 525.825 728.957 523.656L728.968 523.639C731.415 519.607 732.281 514.812 731.398 510.18L716.711 436.801C716.168 433.92 715.01 431.191 713.315 428.799C711.621 426.407 709.43 424.409 706.892 422.942C704.354 421.475 701.529 420.574 698.611 420.299C695.693 420.024 692.75 420.382 689.982 421.35C685.331 422.984 681.478 426.329 679.205 430.704C676.933 435.079 676.413 440.155 677.751 444.9L693.109 496.976L669.568 486L661.7 505.203Z" fill="#008080"/>
<path d="M797.202 577.555C797.193 577.526 797.173 577.42 797.144 577.256L797.115 577.149C797.048 576.801 796.97 576.414 796.883 575.989C794.91 566.19 792.375 556.512 789.291 547.004C787.464 541.181 785.044 535.561 782.067 530.234C781.97 530.06 781.864 529.886 781.757 529.712L781.4 529.131L778.392 530.234L778.276 530.273L732.55 547.033L719.329 551.878L718.913 552.033L716.66 561.221L685.045 557.13L659.28 553.793L651.882 552.836C648.675 552.418 645.416 552.642 642.296 553.495C639.176 554.349 636.258 555.814 633.71 557.807C631.051 559.868 628.829 562.438 627.173 565.367C625.518 568.296 624.462 571.526 624.067 574.867C623.971 575.602 623.912 576.346 623.883 577.082L621.649 660.419V660.525L622.684 662.595L644.3 705.961H659.28L668.12 705.951H675.306L660.364 668.146L660.702 667.634C662.108 665.479 662.994 663.026 663.291 660.471C663.588 657.915 663.288 655.325 662.414 652.904L664.097 648.03C667.588 637.962 665.934 633.127 663.845 627.014C661.969 622.044 660.867 616.816 660.576 611.511L660.228 604.616C669 606.153 677.172 607.865 685.045 609.587C687.675 610.157 690.28 610.734 692.859 611.318C700.2 612.952 707.289 614.529 714.233 615.844C728.295 618.523 741.767 620.157 755.606 619.142C755.877 619.123 756.148 619.103 756.419 619.074C759.784 618.803 763.169 618.368 766.593 617.759C768.518 617.411 770.452 617.014 772.405 616.55C772.947 616.415 773.498 616.279 774.04 616.144C775.544 615.747 776.993 615.166 778.353 614.413C780.289 613.332 782.09 612.027 783.721 610.525C783.73 610.515 783.74 610.515 783.74 610.505C786.409 606.714 789.011 602.865 791.545 598.958C792.908 596.859 794.262 594.741 795.587 592.614C797.522 587.304 798.257 581.946 797.202 577.555Z" fill="#2F2E41"/>
<path d="M797.521 561.898C797.376 561.279 797.192 560.65 796.999 560.041C795.464 555.426 793.675 550.9 791.641 546.482C789.359 541.453 786.622 536.066 783.362 530.234C781.786 527.41 780.09 524.473 778.275 521.423C777.366 519.895 776.422 518.338 775.442 516.752C775.403 516.679 775.361 516.608 775.316 516.539L775.035 516.075L729.793 522.129L712.946 524.383L711.94 532.778L711.698 534.857C711.689 534.857 711.689 534.857 711.698 534.867L711.021 540.534V540.544L710.122 548.029L710.044 548.019L685.044 544.78L659.28 541.443L645.44 539.654C642.233 539.236 638.975 539.46 635.855 540.313C632.735 541.167 629.816 542.632 627.268 544.625C624.609 546.686 622.387 549.256 620.732 552.185C619.076 555.114 618.02 558.344 617.626 561.685C617.539 562.362 617.481 563.058 617.452 563.745L604.395 594.683C596.583 613.186 591.607 632.762 589.637 652.75L580.062 683.359L581.426 683.485L601.717 685.371L607.074 685.874L618.873 668.649C620.218 666.686 621.494 664.665 622.684 662.595C624.642 659.215 626.383 655.713 627.897 652.111L653.419 591.376C655.392 591.714 657.346 592.037 659.28 592.343C668.226 593.794 676.814 594.977 685.044 595.892C711.805 598.881 734.977 599.113 755.606 596.579C761.399 595.873 766.999 594.945 772.405 593.794C774.388 593.378 776.344 592.93 778.275 592.449C778.73 592.343 779.175 592.237 779.62 592.12C783.617 591.09 787.291 589.073 790.307 586.255C793.323 583.436 795.584 579.907 796.883 575.989C798.434 571.448 798.655 566.56 797.521 561.898Z" fill="#2F2E41"/>
<path d="M701.316 379.237C718.6 379.237 732.611 364.914 732.611 347.245C732.611 329.576 718.6 315.253 701.316 315.253C684.033 315.253 670.021 329.576 670.021 347.245C670.021 364.914 684.033 379.237 701.316 379.237Z" fill="#FFB6B6"/>
<path d="M775.626 517.826C775.578 517.468 775.52 517.11 775.442 516.752C774.698 512.826 772.764 508.976 770.897 505.243C769.117 501.684 767.425 498.319 766.729 494.972C766.042 491.675 766.448 488.367 766.845 485.175C767.27 481.713 767.715 478.135 766.719 474.663C761.667 456.931 754.728 439.793 746.022 423.54C743.826 416.394 739.615 410.033 733.894 405.219C728.173 400.406 721.186 397.345 713.769 396.403C714.635 394.786 714.995 392.946 714.804 391.122C714.682 389.944 714.328 388.801 713.762 387.76C713.196 386.719 712.429 385.801 711.506 385.058C710.618 384.344 709.598 383.812 708.505 383.493C707.411 383.174 706.265 383.075 705.132 383.201L690.587 384.836C688.255 385.129 686.133 386.33 684.682 388.179C683.231 390.029 682.569 392.376 682.84 394.71C682.922 395.429 683.084 396.136 683.324 396.819C669.822 414.014 662.888 429.682 662.25 444.498V444.508C662.172 446.219 662.182 447.933 662.279 449.643C662.585 455.174 663.787 460.619 665.838 465.765C668.26 471.71 671.502 477.286 675.47 482.332C676.283 483.357 677.124 484.363 677.995 485.35C678.807 486.317 679.716 487.332 680.722 488.396L683.266 492.381L685.635 496.104L698.304 525.34L704.755 525.128L705.655 531.559L705.867 533.058L710.045 548.019L710.355 549.141L716.071 546.424L750.171 530.234L775.665 518.126L775.626 517.826Z" fill="#008080"/>
<path opacity="0.2" d="M666.221 465.611C669.129 472.733 673.216 479.313 678.312 485.077C679.184 486.119 680.106 487.142 681.071 488.168L686.021 495.936C704.27 482.257 719.055 428.399 719.055 428.399L698.465 424.394L666.221 465.611Z" fill="black"/>
<path d="M653.756 382.226C655.559 385.323 656.082 389.001 655.214 392.478C654.347 395.955 652.157 398.956 649.11 400.843C648.485 401.217 647.829 401.538 647.151 401.804L648.609 449.777L627.834 436.699L629.635 393.148C628.751 390.25 628.851 387.141 629.92 384.306C630.989 381.471 632.967 379.069 635.544 377.476C638.523 375.674 642.097 375.129 645.478 375.961C648.859 376.794 651.771 378.935 653.573 381.914C653.635 382.017 653.696 382.121 653.756 382.226Z" fill="#FFB6B6"/>
<path d="M650.434 431.669L627.588 434.917L628.57 482.227C628.627 485.602 629.546 488.907 631.24 491.827C632.934 494.746 635.346 497.184 638.248 498.909C641.792 500.995 645.919 501.872 650.005 501.408C654.092 500.944 657.917 499.164 660.904 496.337L714.84 444.458C718.635 440.858 720.906 435.94 721.187 430.717C721.467 425.494 719.735 420.361 716.347 416.376C713.028 412.447 708.283 409.997 703.157 409.566C698.032 409.134 692.945 410.757 689.015 414.077C688.862 414.206 688.71 414.339 688.56 414.473C688.027 414.95 687.52 415.455 687.042 415.986L651.427 456.957L650.434 431.669Z" fill="#008080"/>
<path d="M671.495 716.048L670.653 716.203L659.28 718.302L655.576 718.988L649.744 720.062L651.814 728.408C654.299 727.064 656.756 725.681 659.203 724.269L659.222 724.259L659.28 724.25V724.221C663.207 721.977 667.085 719.656 670.915 717.257C671.185 717.093 671.456 716.928 671.727 716.745L671.495 716.048Z" fill="#2F2E41"/>
<path d="M586.852 717.141L572.606 710.313L570.372 709.24L566.803 718.002L541.89 723.486C540.658 723.756 539.545 724.412 538.713 725.36C537.881 726.308 537.374 727.497 537.266 728.753C537.158 730.01 537.454 731.268 538.112 732.344C538.77 733.42 539.755 734.257 540.923 734.733L565.265 744.666L572.993 737.712L571.097 747.045L580.265 750.788L590.314 718.805L586.852 717.141Z" fill="#2F2E41"/>
<path d="M785.058 333.37C779.738 327.167 777.209 318.936 772.957 311.892C768.704 304.848 761.304 298.543 753.486 300.183C748.097 301.313 743.932 306.068 741.823 311.37C739.715 316.672 739.32 322.519 738.951 328.247C739.081 316.476 731.326 305.064 720.643 301.308C709.961 297.552 697.176 301.742 690.464 311.199C687.535 308.483 683.711 306.937 679.718 306.854C675.724 306.77 671.839 308.154 668.799 310.744C662.794 316.11 661.466 326.324 665.881 333.169C670.297 340.014 679.86 342.564 686.877 338.767L689.358 341.05C687.962 345.934 690.67 351.703 695.222 353.542C698.913 355.033 704.125 354.784 705.506 358.658C706.472 361.365 704.667 364.254 702.748 366.334C700.829 368.414 698.55 370.562 698.32 373.44C697.972 377.783 702.46 380.825 706.539 381.742C716.376 383.951 727.291 379.396 732.961 370.714C733.07 370.547 733.189 370.379 733.317 370.211C736.498 366.143 738.817 361.47 740.13 356.475C741.444 351.481 741.726 346.272 740.958 341.165C740.639 339.159 740.961 337.666 742.344 337.191C748.323 335.137 765.076 339.448 770.146 343.344C775.216 347.24 779.276 352.396 784.159 356.543C789.043 360.69 795.267 363.89 801.467 362.76C806.434 361.856 810.658 358.25 813.5 353.901C816.342 349.552 817.977 344.483 819.442 339.445C808.46 345.789 793.431 343.134 785.058 333.37Z" fill="#2F2E41"/>
<path d="M685.04 524.07V708.017C681.539 710.425 677.993 712.769 674.402 715.048V536.265C674.402 531.081 672.661 526.874 670.524 526.865H509.507C507.36 526.874 505.629 531.081 505.619 536.265V773.656C503.472 773.869 501.325 774.072 499.178 774.246C498.288 774.324 497.389 774.391 496.499 774.459C495.986 773.511 495.483 772.554 494.98 771.587V524.07C494.98 522.638 495.038 521.197 495.135 519.776C496.006 507.706 500.329 498.886 505.387 498.866H674.634C675.247 498.87 675.852 498.999 676.414 499.243C680.65 501.042 683.996 508.934 684.837 519.137C684.973 520.762 685.05 522.416 685.04 524.07Z" fill="#E4E4E4"/>
<path d="M426.692 524.07V772.921C426.547 773.153 426.402 773.376 426.257 773.608C422.621 773.24 419 772.818 415.396 772.341V536.265C415.396 531.081 413.549 526.874 411.276 526.865H240.375C238.102 526.874 236.255 531.081 236.255 536.265V700.155C232.435 697.34 228.67 694.455 224.959 691.499V524.07C224.959 522.638 225.017 521.197 225.123 519.776C226.042 507.706 230.636 498.886 236.013 498.866H415.638C416.285 498.868 416.926 498.996 417.524 499.243C422.021 501.042 425.58 508.934 426.479 519.137C426.625 520.762 426.692 522.416 426.692 524.07Z" fill="#E4E4E4"/>
<path d="M369.418 441.37L380.618 490.65L387.775 498.49H392.939L371.659 408.889L370.606 424.111V424.122L369.418 441.37Z" fill="#3F3D56"/>
<path d="M406.715 501.008C406.683 500.931 406.64 500.86 406.589 500.795C406.486 500.562 406.338 500.352 406.154 500.176L404.849 498.87L397.982 491.994C397.478 491.501 396.801 491.223 396.096 491.22H396.067L391.222 491.249L387.053 491.278L381.231 491.317L341.579 491.568L315.515 491.733C314.809 491.742 314.135 492.027 313.637 492.528C313.14 493.029 312.859 493.706 312.855 494.412C312.86 494.802 312.945 495.188 313.107 495.543L313.61 496.617L314.664 498.87L316.037 501.82L316.714 503.271C316.93 503.733 317.273 504.123 317.703 504.397C318.133 504.671 318.632 504.817 319.142 504.818H404.259C404.707 504.809 405.145 504.691 405.537 504.473C405.928 504.255 406.259 503.944 406.502 503.567C406.745 503.191 406.891 502.76 406.928 502.314C406.965 501.868 406.892 501.419 406.715 501.008Z" fill="#3F3D56"/>
<path opacity="0.17" d="M316.039 501.818L316.711 503.274C316.93 503.734 317.274 504.123 317.704 504.397C318.134 504.67 318.632 504.817 319.141 504.819H404.262C404.709 504.811 405.148 504.693 405.539 504.475C405.93 504.257 406.262 503.946 406.504 503.57C406.747 503.193 406.893 502.763 406.929 502.317C406.966 501.871 406.892 501.422 406.715 501.011C406.685 500.935 406.643 500.863 406.591 500.799L316.039 501.818Z" fill="black"/>
<path opacity="0.17" d="M370.605 424.111V424.122L388.828 498.49H392.938L371.659 408.889L370.605 424.111Z" fill="black"/>
<path d="M399.19 215.995L396.521 215.637C395.789 215.542 395.048 215.74 394.461 216.188L392.865 217.417L375.099 239.641C374.512 240.095 374.13 240.762 374.035 241.498L373.039 249.061L348.242 437.738C348.154 438.437 348.33 439.144 348.735 439.721L360.418 471.926L360.766 472.429L361.521 473.502C361.909 474.047 362.478 474.438 363.126 474.605L364.819 475.03C365.203 475.127 365.604 475.14 365.994 475.07C366.384 475 366.755 474.848 367.082 474.624C367.41 474.404 367.687 474.115 367.894 473.778C368.101 473.441 368.233 473.063 368.281 472.671L371.308 449.672V449.663L373.242 434.904L374.877 422.457V422.448L401.608 219.128C401.705 218.394 401.506 217.652 401.055 217.065C400.604 216.477 399.938 216.093 399.204 215.997L399.19 215.995Z" fill="#3F3D56"/>
<path opacity="0.17" d="M392.862 217.417L360.417 471.93L360.769 472.428L361.521 473.499C361.909 474.045 362.478 474.436 363.127 474.602L364.822 475.028C365.206 475.123 365.605 475.136 365.994 475.067C366.383 474.997 366.753 474.846 367.08 474.623C367.407 474.401 367.683 474.112 367.89 473.775C368.098 473.439 368.232 473.062 368.284 472.67L401.606 219.131C401.702 218.395 401.503 217.651 401.051 217.062C400.598 216.473 399.931 216.087 399.195 215.99L396.519 215.639C396.155 215.59 395.786 215.613 395.432 215.708C395.079 215.803 394.747 215.968 394.458 216.192L392.862 217.417Z" fill="black"/>
<path d="M391.906 224.696L374.688 249.271L354.224 404.98L365.319 426.991L391.906 224.696Z" fill="#008080"/>
<path d="M559.624 441.37L548.424 490.65L541.267 498.49H536.104L557.384 408.889L558.436 424.111V424.122L559.624 441.37Z" fill="#3F3D56"/>
<path d="M613.525 491.733L547.819 491.317L541.987 491.278L537.828 491.249L532.983 491.22H532.944C532.241 491.222 531.567 491.499 531.068 491.994L522.886 500.176C522.705 500.354 522.557 500.564 522.451 500.795C522.4 500.86 522.358 500.931 522.325 501.008C522.148 501.419 522.075 501.868 522.112 502.314C522.149 502.76 522.296 503.191 522.538 503.567C522.781 503.944 523.112 504.255 523.504 504.473C523.895 504.691 524.334 504.809 524.782 504.818H609.898C610.409 504.816 610.909 504.67 611.34 504.396C611.772 504.122 612.117 503.732 612.336 503.271L613.003 501.82L614.376 498.87L615.933 495.543C616.1 495.189 616.185 494.803 616.185 494.412C616.181 493.706 615.9 493.029 615.403 492.528C614.905 492.027 614.231 491.742 613.525 491.733Z" fill="#3F3D56"/>
<path opacity="0.17" d="M613.003 501.818L612.331 503.274C612.112 503.734 611.768 504.123 611.338 504.397C610.908 504.67 610.41 504.817 609.901 504.819H524.78C524.333 504.811 523.894 504.693 523.503 504.475C523.112 504.257 522.78 503.946 522.538 503.57C522.295 503.193 522.149 502.763 522.113 502.317C522.076 501.871 522.15 501.422 522.327 501.011C522.358 500.935 522.399 500.863 522.451 500.799L613.003 501.818Z" fill="black"/>
<path opacity="0.17" d="M558.436 424.111V424.122L540.214 498.49H536.104L557.384 408.889L558.436 424.111Z" fill="black"/>
<path d="M580.798 437.738L555.005 241.498C554.911 240.763 554.528 240.095 553.941 239.641L536.185 217.417L534.589 216.188C533.998 215.741 533.255 215.543 532.519 215.637L529.85 215.995C529.114 216.09 528.446 216.473 527.992 217.061C527.539 217.649 527.337 218.392 527.432 219.129L554.164 422.458V422.467L555.798 434.904L557.742 449.673V449.692L560.759 472.671C560.807 473.065 560.94 473.443 561.149 473.78C561.358 474.118 561.637 474.406 561.968 474.624C562.294 474.848 562.663 475 563.051 475.07C563.44 475.14 563.839 475.127 564.222 475.031L565.914 474.605C566.563 474.438 567.131 474.048 567.52 473.503L568.274 472.429L568.622 471.926L580.305 439.721C580.715 439.146 580.891 438.438 580.798 437.738Z" fill="#3F3D56"/>
<path opacity="0.17" d="M536.181 217.417L568.626 471.93L568.273 472.428L567.522 473.499C567.134 474.045 566.565 474.436 565.916 474.602L564.221 475.028C563.837 475.123 563.438 475.136 563.049 475.067C562.66 474.997 562.29 474.846 561.963 474.623C561.636 474.401 561.36 474.112 561.153 473.775C560.945 473.439 560.811 473.062 560.759 472.67L527.437 219.131C527.34 218.395 527.54 217.651 527.992 217.062C528.444 216.473 529.112 216.087 529.848 215.99L532.524 215.639C532.887 215.59 533.257 215.613 533.61 215.708C533.964 215.803 534.296 215.968 534.585 216.192L536.181 217.417Z" fill="black"/>
<path d="M537.137 224.696L554.354 249.271L574.819 404.98L563.724 426.991L537.137 224.696Z" fill="#008080"/>
<path d="M217.119 538.629C217.122 539.115 217.08 539.601 216.994 540.08C216.955 540.312 216.907 540.534 216.849 540.757C216.377 542.555 215.324 544.146 213.852 545.282C212.38 546.418 210.574 547.034 208.715 547.033H172.322V633.833C172.324 635.668 171.722 637.452 170.61 638.911C169.778 637.934 168.956 636.957 168.144 635.97C163.792 630.767 159.585 625.448 155.523 620.013V547.033H139.275C137.109 547.032 135.027 546.194 133.464 544.693C131.901 543.193 130.978 541.147 130.888 538.982C130.798 536.818 131.548 534.702 132.981 533.077C134.414 531.453 136.42 530.444 138.579 530.263C138.811 530.244 139.043 530.234 139.275 530.234H208.715C210.943 530.234 213.079 531.117 214.655 532.692C216.231 534.266 217.118 536.402 217.119 538.629Z" fill="#3F3D56"/>
<path d="M797.039 538.629C797.039 540.33 796.524 541.992 795.56 543.394C794.597 544.796 793.23 545.873 791.642 546.482C790.888 546.771 790.097 546.946 789.292 547.004C789.079 547.024 788.857 547.033 788.644 547.033H772.406V625.816C772.164 626.135 771.913 626.454 771.661 626.773C767.841 631.657 763.905 636.444 759.853 641.135C758.559 640.406 757.483 639.345 756.737 638.061C755.99 636.778 755.6 635.318 755.607 633.833V547.033H719.204C718.13 547.037 717.065 546.83 716.071 546.424C714.818 545.923 713.704 545.127 712.825 544.103C711.946 543.079 711.328 541.858 711.022 540.544V540.534C710.571 538.625 710.811 536.617 711.699 534.867C711.69 534.857 711.69 534.857 711.699 534.857C712.083 534.087 712.586 533.382 713.189 532.768C713.972 531.966 714.907 531.329 715.94 530.894C716.973 530.458 718.083 530.234 719.204 530.234H788.644C790.87 530.234 793.005 531.118 794.579 532.692C796.154 534.265 797.038 536.4 797.039 538.626L797.039 538.629Z" fill="#3F3D56"/>
<path d="M796.482 376.792C793.026 376.792 789.603 377.473 786.41 378.795C783.217 380.118 780.315 382.057 777.871 384.501C775.427 386.945 773.488 389.846 772.166 393.04C770.843 396.233 770.162 399.655 770.162 403.112C770.163 409.217 772.286 415.133 776.168 419.845C780.05 424.558 785.45 427.775 791.442 428.945V471.992H808.242V376.792H796.482Z" fill="#3F3D56"/>
<path d="M336.952 472.899C335.276 471.916 333.405 471.312 331.471 471.129C329.537 470.947 327.586 471.191 325.756 471.844C323.926 472.497 322.262 473.544 320.88 474.91C319.499 476.276 318.433 477.928 317.759 479.75L287.412 480.934L283.323 495.069L326.466 497.278C329.602 498.207 332.971 497.954 335.933 496.566C338.895 495.177 341.245 492.751 342.537 489.746C343.83 486.741 343.975 483.366 342.946 480.261C341.916 477.156 339.783 474.537 336.952 472.899Z" fill="#9E616A"/>
<path d="M312.025 498.802L280.852 498.413L276.906 498.36L213.484 497.561C213.484 497.561 196.261 481.13 181.265 464.214L183.367 449.01C185.417 434.089 192.819 420.421 204.194 410.551C225.673 424.903 238.129 453.311 238.129 453.311L259.014 462.656C273.712 463.314 288.034 467.508 300.765 474.884L307.633 478.863L312.025 498.802Z" fill="#008080"/>
<path d="M409.965 771.591H522.403C514.734 772.713 506.994 773.599 499.182 774.25H433.186C425.371 773.602 417.631 772.716 409.965 771.591Z" fill="#CCCCCC"/>
<path d="M432.57 714.985C434.746 695.346 446.639 675.865 465.253 669.234C458.149 689.514 458.446 711.653 466.093 731.734C469.071 739.468 473.187 747.76 470.589 755.629C468.973 760.526 464.909 764.31 460.342 766.703C455.774 769.096 450.685 770.276 445.66 771.432L444.679 772.266C436.437 754.307 430.394 734.625 432.57 714.985Z" fill="#CCCCCC"/>
<path d="M465.444 669.602C454.718 681.949 448.155 697.362 446.687 713.651C446.308 717.152 446.484 720.691 447.208 724.138C448.022 727.472 449.713 730.528 452.107 732.987C454.293 735.325 456.8 737.464 458.379 740.293C459.166 741.753 459.636 743.363 459.757 745.017C459.878 746.671 459.648 748.332 459.082 749.891C457.774 753.813 455.134 757.03 452.443 760.087C449.455 763.481 446.299 766.958 445.069 771.421C444.92 771.962 444.09 771.699 444.238 771.159C446.378 763.395 453.827 758.901 457.315 751.887C458.942 748.614 459.593 744.83 457.981 741.42C456.571 738.438 453.988 736.23 451.754 733.882C449.384 731.517 447.628 728.607 446.641 725.407C445.745 722.009 445.433 718.483 445.719 714.98C446.237 707.083 447.994 699.317 450.925 691.966C454.224 683.558 458.936 675.776 464.859 668.957C465.226 668.535 465.808 669.183 465.444 669.602Z" fill="white"/>
<path d="M446.851 708.378C444.151 707.761 441.759 706.204 440.101 703.986C438.443 701.768 437.628 699.032 437.801 696.268C437.809 696.156 437.861 696.051 437.945 695.975C438.029 695.9 438.139 695.86 438.252 695.864C438.365 695.868 438.471 695.916 438.55 695.997C438.628 696.079 438.672 696.187 438.672 696.3C438.506 698.874 439.265 701.422 440.813 703.484C442.361 705.547 444.595 706.988 447.113 707.548C447.659 707.67 447.394 708.5 446.851 708.378Z" fill="white"/>
<path d="M450.842 731.948C455.663 728.981 459.189 724.306 460.717 718.855C460.868 718.315 461.698 718.577 461.547 719.117C459.947 724.786 456.268 729.644 451.244 732.72C450.765 733.013 450.366 732.239 450.842 731.948Z" fill="white"/>
<path d="M455.042 684.372C456.037 684.829 457.13 685.031 458.222 684.961C459.314 684.891 460.372 684.55 461.3 683.97C461.775 683.672 462.174 684.446 461.702 684.743C460.674 685.379 459.505 685.753 458.298 685.833C457.092 685.914 455.884 685.697 454.781 685.203C454.673 685.165 454.583 685.087 454.53 684.986C454.478 684.884 454.465 684.766 454.496 684.656C454.531 684.547 454.609 684.455 454.711 684.402C454.813 684.349 454.932 684.338 455.042 684.372Z" fill="white"/>
<path d="M522.719 703.492C522.428 703.687 522.136 703.882 521.845 704.085C517.941 706.727 514.259 709.682 510.834 712.921C510.565 713.167 510.297 713.42 510.036 713.674C501.867 721.564 495.235 730.902 490.476 741.214C488.586 745.319 487.011 749.561 485.765 753.905C484.044 759.904 482.655 766.546 479.156 771.481C478.797 772 478.406 772.496 477.985 772.967L445.773 773.398C445.699 773.362 445.625 773.333 445.551 773.298L444.266 773.374C444.314 773.145 444.37 772.909 444.418 772.681C444.446 772.548 444.481 772.415 444.508 772.282C444.529 772.194 444.55 772.105 444.564 772.024C444.571 771.995 444.578 771.965 444.585 771.943C444.598 771.862 444.62 771.788 444.633 771.715C444.939 770.395 445.255 769.075 445.58 767.755C445.58 767.747 445.58 767.747 445.587 767.74C447.97 757.657 451.541 747.892 456.224 738.651C456.367 738.377 456.511 738.095 456.669 737.821C458.84 733.729 461.342 729.821 464.15 726.137C465.694 724.124 467.339 722.191 469.079 720.344C473.582 715.583 478.807 711.559 484.561 708.42C496.033 702.166 509.378 699.65 521.775 703.211C522.092 703.302 522.402 703.394 522.719 703.492Z" fill="#CCCCCC"/>
<path d="M522.652 703.902C506.654 707.302 492.134 715.657 481.155 727.779C478.745 730.347 476.755 733.279 475.258 736.466C473.9 739.618 473.41 743.076 473.841 746.481C474.179 749.664 474.892 752.881 474.451 756.091C474.2 757.73 473.606 759.298 472.706 760.692C471.807 762.086 470.624 763.274 469.233 764.178C465.827 766.521 461.782 767.501 457.794 768.321C453.365 769.232 448.75 770.109 445.082 772.932C444.637 773.274 444.132 772.564 444.576 772.222C450.959 767.311 459.613 768.208 466.62 764.707C469.89 763.074 472.688 760.445 473.454 756.751C474.124 753.521 473.39 750.203 473.02 746.983C472.552 743.668 472.902 740.288 474.041 737.139C475.371 733.885 477.245 730.882 479.582 728.257C484.751 722.265 490.829 717.122 497.595 713.017C505.291 708.289 513.739 704.913 522.574 703.035C523.121 702.919 523.195 703.787 522.652 703.902Z" fill="white"/>
<path d="M484.46 723.668C482.677 721.55 481.704 718.866 481.716 716.097C481.728 713.328 482.724 710.653 484.526 708.551C484.892 708.126 485.568 708.675 485.202 709.1C483.52 711.055 482.593 713.547 482.587 716.125C482.581 718.704 483.497 721.2 485.17 723.163C485.533 723.589 484.821 724.092 484.46 723.668Z" fill="white"/>
<path d="M473.457 744.89C479.093 745.424 484.723 743.814 489.224 740.381C489.67 740.041 490.175 740.751 489.729 741.091C485.038 744.654 479.176 746.317 473.313 745.749C472.754 745.695 472.901 744.836 473.457 744.89Z" fill="white"/>
<path d="M505.455 709.433C505.974 710.396 506.725 711.215 507.639 711.817C508.553 712.419 509.603 712.784 510.693 712.88C511.252 712.927 511.104 713.786 510.549 713.738C509.345 713.627 508.186 713.222 507.175 712.56C506.163 711.897 505.329 710.997 504.745 709.938C504.682 709.843 504.657 709.727 504.676 709.614C504.695 709.501 504.756 709.4 504.847 709.331C504.941 709.264 505.058 709.238 505.172 709.257C505.286 709.276 505.387 709.339 505.455 709.433Z" fill="white"/>
<path d="M539.427 730.853C545.085 730.853 549.672 726.266 549.672 720.608C549.672 714.95 545.085 710.364 539.427 710.364C533.769 710.364 529.183 714.95 529.183 720.608C529.183 726.266 533.769 730.853 539.427 730.853Z" fill="#CCCCCC"/>
<path d="M572.875 760.772C572.247 760.956 571.608 761.14 570.97 761.314C565.177 762.939 559.342 764.425 553.465 765.772C552.789 764.406 552.426 762.907 552.403 761.383C552.379 759.859 552.697 758.349 553.331 756.963C553.966 755.577 554.902 754.351 556.071 753.373C557.24 752.394 558.612 751.69 560.088 751.309C561.564 750.929 563.107 750.883 564.603 751.175C566.099 751.466 567.511 752.088 568.736 752.995C569.961 753.902 570.969 755.07 571.685 756.416C572.401 757.761 572.807 759.25 572.875 760.772Z" fill="#CCCCCC"/>
<path d="M631.406 738.78C630.622 739.147 629.839 739.515 629.055 739.873C628.204 740.279 627.344 740.666 626.493 741.052C625.535 741.488 624.587 741.913 623.63 742.339C620.032 743.944 616.396 745.492 612.75 746.981C612.701 746.904 612.653 746.816 612.605 746.729C611.327 744.336 611.052 741.533 611.838 738.937C612.625 736.34 614.409 734.161 616.799 732.878C619.19 731.595 621.992 731.313 624.59 732.093C627.189 732.873 629.372 734.651 630.661 737.039C630.957 737.597 631.206 738.18 631.406 738.78Z" fill="#CCCCCC"/>
<path d="M575.561 705.707C581.219 705.707 585.806 701.12 585.806 695.462C585.806 689.804 581.219 685.217 575.561 685.217C569.903 685.217 565.316 689.804 565.316 695.462C565.316 701.12 569.903 705.707 575.561 705.707Z" fill="#CCCCCC"/>
<path d="M481.587 134.143C421.325 149.994 354.554 159.636 286.662 162.277C276.712 162.819 266.739 162.751 256.797 162.074C234.95 160.236 216.236 153.369 195.394 149.617C185.375 147.818 174.214 146.503 164.127 144.559C166.458 141.667 168.83 138.811 171.245 135.99C192.996 137.828 215.085 143.843 237.097 146.638C274.515 151.396 316.44 146.087 344.806 132.992C358.568 126.638 369.11 118.708 382.824 112.324C384.689 111.367 386.709 110.748 388.791 110.497C393.133 110.1 396.944 111.851 400.048 113.417C423.056 125.033 456.461 134.472 487.467 129.278C489.778 131.087 485.388 133.147 481.587 134.143Z" fill="white"/>
<path d="M618.793 175.019C619.077 174.967 619.36 174.927 619.644 174.878C618.453 174.14 617.331 173.295 616.293 172.353L618.793 175.019Z" fill="white"/>
<path d="M804.404 197.935C791.454 198.969 778.436 199.74 765.351 200.246C755.401 200.783 745.428 200.715 735.486 200.043C713.639 198.196 694.925 191.339 674.083 187.586C654.982 184.153 631.771 182.499 619.644 174.878C650.988 169.453 683.464 180.497 715.786 184.608C741.93 187.822 768.432 186.514 794.133 180.739C797.711 186.368 801.135 192.1 804.404 197.935Z" fill="white"/>
<path d="M512.891 343.008C482.553 238.879 464.697 131.515 464.697 23.0558V15.1953H454.617V23.0556C454.617 131.515 436.76 238.879 406.423 343.008C404.957 348.049 404.214 353.273 404.217 358.523C404.217 360.509 404.608 362.475 405.368 364.309C406.128 366.144 407.241 367.811 408.645 369.215C410.049 370.619 411.716 371.732 413.551 372.492C415.385 373.252 417.351 373.643 419.337 373.643H439.497C439.497 376.291 440.018 378.912 441.031 381.358C442.045 383.804 443.53 386.027 445.402 387.899C447.274 389.771 449.496 391.256 451.942 392.269C454.388 393.282 457.01 393.803 459.657 393.803C462.304 393.803 464.926 393.282 467.372 392.269C469.818 391.256 472.04 389.771 473.912 387.899C475.784 386.027 477.269 383.804 478.282 381.358C479.296 378.912 479.817 376.291 479.817 373.643H495.505V417.095C493.292 417.159 491.188 418.068 489.624 419.635C488.06 421.202 487.156 423.308 487.096 425.521C487.036 427.734 487.826 429.886 489.303 431.536C490.779 433.185 492.832 434.206 495.038 434.39C497.244 434.574 499.437 433.906 501.166 432.524C502.896 431.142 504.03 429.15 504.338 426.958C504.645 424.765 504.101 422.539 502.818 420.734C501.536 418.93 499.611 417.685 497.439 417.256V373.643H499.977C503.987 373.643 507.833 372.05 510.669 369.215C513.504 366.379 515.097 362.533 515.097 358.523C515.1 353.273 514.357 348.049 512.891 343.008Z" fill="white"/>
</g>
<defs>
<clipPath id="clip0_105_3461">
<rect width="854" height="775.637" fill="white"/>
</clipPath>
</defs>
</svg>
